<?xml version="1.0" encoding="UTF-8"?>
<svg version="1.1" xmlns="http://www.w3.org/2000/svg" width="1024" height="1024">
<path d="M0 0 C337.92 0 675.84 0 1024 0 C1024 337.92 1024 675.84 1024 1024 C686.08 1024 348.16 1024 0 1024 C0 686.08 0 348.16 0 0 Z " fill="#FAF9F8" transform="translate(0,0)"/>
<path d="M0 0 C0.64443558 -0.00671722 1.28887115 -0.01343445 1.95283508 -0.02035522 C4.07752247 -0.03931084 6.20189354 -0.04325815 8.32666016 -0.04541016 C9.8087273 -0.05183994 11.29079317 -0.05856844 12.77285767 -0.06558228 C15.87806134 -0.07754902 18.98315381 -0.08126374 22.08837891 -0.08007812 C26.05856039 -0.079875 30.02802552 -0.10717223 33.99803734 -0.14162254 C37.05906418 -0.16391039 40.11991916 -0.1679151 43.18101883 -0.16685867 C44.6441965 -0.16921199 46.1073791 -0.17802041 47.57047653 -0.19352341 C49.62170657 -0.21322283 51.67139901 -0.20733211 53.72265625 -0.1953125 C55.46994522 -0.19958755 55.46994522 -0.19958755 57.25253296 -0.20394897 C61.96260306 0.51528564 65.09395974 2.74058854 68.25390625 6.24707031 C69.58940063 8.45356221 70.45587831 10.542513 71.27978516 12.98583984 C71.58142578 13.86626953 71.88306641 14.74669922 72.19384766 15.65380859 C72.49806641 16.56517578 72.80228516 17.47654297 73.11572266 18.41552734 C73.73190479 20.23097305 74.34904566 22.04609373 74.96728516 23.86083984 C75.37068115 25.06377686 75.37068115 25.06377686 75.78222656 26.29101562 C76.45707842 28.32557695 76.45707842 28.32557695 77.49072266 30.29052734 C80.54615202 30.69892632 83.54594395 30.99521488 86.61572266 31.22802734 C120.43883822 34.243546 147.96831783 49.52612158 174.9519043 69.41992188 C178.44697007 71.99509199 181.99826001 74.48659433 185.55322266 76.97802734 C190.14694283 80.1992113 194.71800109 83.44383689 199.23291016 86.77490234 C200.4103479 87.639823 200.4103479 87.639823 201.61157227 88.5222168 C203.10406023 89.6211749 204.59222169 90.7260455 206.07495117 91.83813477 C214.95184753 98.35928307 223.95434606 102.02855714 234.61181641 104.66552734 C236.32087914 105.10324463 236.32087914 105.10324463 238.06446838 105.54980469 C241.68308784 106.47412185 245.30543203 107.38271258 248.92822266 108.29052734 C251.32367631 108.89883476 253.7188612 109.50820153 256.11376953 110.11865234 C260.75882178 111.30161599 265.40496049 112.48014992 270.05200195 113.65527344 C275.78240745 115.10726568 281.5069208 116.58017158 287.22509766 118.07958984 C288.32723854 118.36709106 288.32723854 118.36709106 289.4516449 118.66040039 C308.97521571 123.80595095 329.46859211 130.9691682 341.49072266 148.29052734 C345.26213627 155.92362778 347.43004065 164.18836994 349.59619141 172.39208984 C350.38750361 175.44408026 350.38750361 175.44408026 352.49072266 178.29052734 C352.75141907 180.56053162 352.75141907 180.56053162 352.76538086 183.24926758 C352.77491287 184.25718857 352.78444489 185.26510956 352.79426575 186.30357361 C352.79335434 187.39110428 352.79244293 188.47863495 352.79150391 189.59912109 C352.79793159 191.27652122 352.79793159 191.27652122 352.80448914 192.98780823 C352.81023526 195.35408857 352.81073063 197.72038657 352.80639648 200.08666992 C352.80323814 203.71026711 352.82668754 207.33304687 352.85205078 210.95654297 C352.85432386 213.25406798 352.85502723 215.55159519 352.85400391 217.84912109 C352.86321365 218.93462753 352.8724234 220.02013397 352.88191223 221.13853455 C352.87256905 222.65514427 352.87256905 222.65514427 352.86303711 224.20239258 C352.86366653 225.09047104 352.86429596 225.9785495 352.86494446 226.89353943 C352.41241154 229.7921304 351.47173256 231.15663057 349.49072266 233.29052734 C347.30175781 234.18774414 347.30175781 234.18774414 344.77978516 234.73974609 C343.86455078 234.94792969 342.94931641 235.15611328 342.00634766 235.37060547 C340.57548828 235.6712793 340.57548828 235.6712793 339.11572266 235.97802734 C338.16955078 236.19007813 337.22337891 236.40212891 336.24853516 236.62060547 C332.76175749 237.39680527 329.28513403 238.15837412 325.76098633 238.74462891 C323.36197151 239.06207304 323.36197151 239.06207304 322.18994141 241.07568359 C321.68914062 242.20296875 321.68914062 242.20296875 321.17822266 243.35302734 C315.82386697 253.7808003 306.41409385 260.29134523 295.58056641 264.39208984 C283.53768791 267.86069819 270.88228416 267.73031795 259.49072266 262.29052734 C252.05110412 257.97212808 245.28630397 252.48389931 240.49072266 245.29052734 C238.38685248 244.8842506 238.38685248 244.8842506 235.91992188 245.02587891 C234.95767197 245.04293381 233.99542206 245.05998871 233.00401306 245.07756042 C231.9451741 245.11174576 230.88633514 245.14593109 229.79541016 245.18115234 C228.68359879 245.20490433 227.57178741 245.22865631 226.42628479 245.25312805 C222.73896036 245.33498602 219.05252207 245.43788214 215.36572266 245.54052734 C212.81636121 245.60060214 210.26696205 245.65909581 207.7175293 245.71606445 C203.06171715 245.82122117 198.40605742 245.93046531 193.75049686 246.04606915 C181.05805833 246.36012278 168.36419554 246.57442988 155.66973877 246.78918457 C149.69202766 246.89118431 143.71442586 246.99916794 137.73681641 247.10693359 C135.73348024 247.14284565 133.73014369 247.17873693 131.72680664 247.21459961 C130.31477861 247.23990682 128.9027506 247.26521518 127.49072266 247.29052734 C127.34973145 248.06541504 127.20874023 248.84030273 127.06347656 249.63867188 C125.22121474 258.16835983 118.54047275 265.94134183 111.40209961 270.67578125 C102.96615152 275.12792192 94.79839175 275.02250604 85.49267578 274.88745117 C82.86333732 274.85299609 80.23734525 274.86687477 77.60791016 274.88623047 C61.298157 274.8731798 61.298157 274.8731798 54.49072266 270.29052734 C53.69279297 269.76072266 52.89486328 269.23091797 52.07275391 268.68505859 C40.54007717 258.37438734 33.44268213 243.4054937 32.32226562 227.96972656 C31.57820799 212.05810078 32.90417335 197.06812717 43.18994141 184.15771484 C48.23963679 178.73354766 53.34211982 176.19978615 60.80322266 175.79052734 C68.74403474 176.05195326 74.89365211 179.21794467 80.30322266 184.97802734 C88.59387426 195.37547982 92.06419457 207.40099736 91.92822266 220.54052734 C91.92282471 221.54325684 91.91742676 222.54598633 91.91186523 223.57910156 C91.70627224 233.6702235 90.00910111 242.65719027 84.49072266 251.29052734 C87.13072266 251.29052734 89.77072266 251.29052734 92.49072266 251.29052734 C93.46497283 249.5074657 94.41920249 247.71346277 95.36572266 245.91552734 C95.89939453 244.91779297 96.43306641 243.92005859 96.98291016 242.89208984 C103.29157819 227.82319885 102.65218424 206.32627863 96.70849609 191.31494141 C91.58260739 179.2296512 85.11694693 168.72526007 72.75244141 163.13037109 C66.31562574 160.74018911 59.39704545 159.97709707 52.79541016 162.19677734 C39.20345111 168.68101469 32.69652837 179.18483077 27.53369141 193.05224609 C27.01742187 194.65519531 27.01742187 194.65519531 26.49072266 196.29052734 C26.11818359 197.41072266 25.74564453 198.53091797 25.36181641 199.68505859 C23.74573333 206.36747825 24.28356198 213.45878929 24.36572266 220.29052734 C24.37577111 221.74755245 24.38489366 223.20458426 24.39306641 224.66162109 C24.41493555 228.20473064 24.44936288 231.74758546 24.49072266 235.29052734 C10.50731893 234.5248009 -3.43558462 233.33851997 -17.38427734 232.10302734 C-18.59129303 231.99647827 -19.79830872 231.8899292 -21.04190063 231.78015137 C-39.29650725 230.15629326 -57.50363717 228.2482657 -75.69677734 226.04052734 C-76.77352722 225.91006012 -77.8502771 225.7795929 -78.95965576 225.64517212 C-81.99102517 225.27570702 -85.02180107 224.90186902 -88.05224609 224.52490234 C-88.94236893 224.41468246 -89.83249176 224.30446259 -90.74958801 224.19090271 C-94.70517996 223.69001727 -98.61241164 223.1537287 -102.50927734 222.29052734 C-102.60208984 223.46615234 -102.60208984 223.46615234 -102.69677734 224.66552734 C-104.81307542 234.10747263 -110.46761637 243.38502507 -118.69677734 248.70458984 C-126.39781833 252.64004829 -133.09030853 252.57392582 -141.57177734 252.66552734 C-143.50053711 252.72160156 -143.50053711 252.72160156 -145.46826172 252.77880859 C-154.83242199 252.86484988 -161.72285021 251.53978427 -168.84130859 245.22021484 C-179.73827902 230.09671499 -182.78554126 213.48702057 -180.20458984 195.12255859 C-178.12342648 184.48314183 -173.48702496 174.61575862 -164.50927734 168.29052734 C-161.64319606 166.8574867 -159.69626951 166.98408579 -156.50927734 167.29052734 C-148.02774549 171.53129327 -144.22866313 179.05383715 -141.27099609 187.67724609 C-137.21860514 201.5800643 -137.69570397 219.00235963 -143.50927734 232.29052734 C-140.10312789 232.26926272 -140.10312789 232.26926272 -136.50927734 231.29052734 C-128.92181268 220.82505884 -130.09788146 202.62087405 -131.92822266 190.52099609 C-134.66562316 176.80860024 -139.56020298 163.79894506 -151.25927734 155.29052734 C-157.21701896 153.45737608 -163.04111563 153.15137578 -168.75927734 155.79052734 C-181.65413985 167.51312962 -187.09916992 182.88400954 -188.13720703 200.11669922 C-188.31131901 203.84130276 -188.42902229 207.56268017 -188.50927734 211.29052734 C-193.35789977 212.73716971 -195.82997031 211.07299429 -200.16943359 208.72802734 C-205.86786161 205.22715671 -207.22961071 200.85326467 -208.86547852 194.66552734 C-209.98296006 188.8073306 -209.99094085 182.96233485 -209.95532227 177.02075195 C-209.94680112 174.85905865 -209.97569346 172.70000919 -210.00732422 170.53857422 C-210.04462381 162.80134464 -209.20179113 156.27015549 -206.41577148 148.96948242 C-205.04527906 144.91927684 -205.00475111 141.09139302 -205.00927734 136.85302734 C-204.73509869 127.47872875 -203.9283324 117.84842725 -197.75927734 110.29052734 C-192.71005173 105.87381811 -185.73499997 104.58369557 -179.40527344 102.83154297 C-171.66075366 100.62167227 -165.64273249 97.4555422 -159.50927734 92.29052734 C-158.78297119 91.68724609 -158.78297119 91.68724609 -158.04199219 91.07177734 C-151.13065073 85.32033746 -144.46947762 79.35303914 -137.94677734 73.16552734 C-108.72824752 45.62091715 -73.94499287 33.36074621 -34.07373047 31.16748047 C-33.00960937 31.0959375 -31.94548828 31.02439453 -30.84912109 30.95068359 C-29.89384521 30.89533447 -28.93856934 30.83998535 -27.9543457 30.78295898 C-25.09791165 30.20767916 -24.22141483 29.61553035 -22.50927734 27.29052734 C-21.5566536 25.28730414 -21.5566536 25.28730414 -20.86083984 23.05224609 C-20.57724609 22.23175781 -20.29365234 21.41126953 -20.00146484 20.56591797 C-19.4276578 18.85354334 -18.85728989 17.14001207 -18.29052734 15.42529297 C-16.26398728 9.58757957 -14.141608 4.65410952 -8.75839233 1.1512146 C-5.76024382 0.00388855 -3.20972512 0.02103526 0 0 Z " fill="#0E2232" transform="translate(437.50927734375,234.70947265625)"/>
<path d="M0 0 C3.19439613 2.14072218 6.09126172 4.49267996 9 7 C9.99 7.66 10.98 8.32 12 9 C11.97679687 8.37351562 11.95359375 7.74703125 11.9296875 7.1015625 C11.91164063 6.28429687 11.89359375 5.46703125 11.875 4.625 C11.85179687 3.81289063 11.82859375 3.00078125 11.8046875 2.1640625 C12 0 12 0 14 -2 C16.01538086 -2.25878906 16.01538086 -2.25878906 18.46484375 -2.265625 C19.34720703 -2.26820313 20.22957031 -2.27078125 21.13867188 -2.2734375 C22.06228516 -2.26570312 22.98589844 -2.25796875 23.9375 -2.25 C24.85724609 -2.25773438 25.77699219 -2.26546875 26.72460938 -2.2734375 C28.05008789 -2.26957031 28.05008789 -2.26957031 29.40234375 -2.265625 C30.21179443 -2.26336914 31.02124512 -2.26111328 31.85522461 -2.25878906 C34 -2 34 -2 37 0 C37.37752342 1.91486931 37.37752342 1.91486931 37.38095093 4.29782104 C37.3894104 5.20037125 37.39786987 6.10292145 37.40658569 7.03282166 C37.400513 8.02600906 37.39444031 9.01919647 37.38818359 10.04248047 C37.39344055 11.0866362 37.39869751 12.13079193 37.40411377 13.20658875 C37.41737206 16.67693832 37.40854857 20.14683279 37.3984375 23.6171875 C37.40045808 26.02938932 37.40336938 28.44159055 37.40713501 30.85379028 C37.41156751 35.92309351 37.40510311 40.99223856 37.39111328 46.06152344 C37.37411238 52.53532622 37.38379893 59.00875339 37.40183067 65.48254204 C37.4127217 70.47222673 37.40919625 75.46182391 37.4014473 80.45151138 C37.3994552 82.83634613 37.4018695 85.22118899 37.40888596 87.60601425 C37.41657756 90.95874469 37.4047846 94.31088709 37.38818359 97.66357422 C37.39425629 98.63651932 37.40032898 99.60946442 37.40658569 100.6118927 C37.27280814 115.33068874 32.37594744 128.18067088 22.2578125 138.93359375 C9.08211193 150.99232316 -7.74628802 154.68511816 -25.078125 154.30859375 C-39.26318551 153.64245977 -55.98808412 148.45860136 -66 138 C-66.23090231 132.892161 -63.50301005 128.86983355 -60.9375 124.625 C-60.56044922 123.98433594 -60.18339844 123.34367188 -59.79492188 122.68359375 C-58.87160383 121.11745934 -57.93694607 119.55801966 -57 118 C-52.92779751 117.6878451 -51.09245992 118.27879504 -47.875 120.75 C-38.44797768 127.40714598 -27.43189306 129.94145002 -16 129 C-8.79293874 127.55858775 -3.00838168 125.09433544 2.1875 119.75 C7.66747861 111.4355497 7.33657036 103.57355685 7 94 C6.05125 94.886875 5.1025 95.77375 4.125 96.6875 C-5.74610829 105.08886581 -16.97866537 107.56248555 -29.703125 107.30859375 C-41.96254995 106.16108833 -52.85188397 100.01587607 -60.875 90.8125 C-65.11972347 85.29967489 -67.74473496 79.54842019 -70 73 C-70.35964844 71.96230469 -70.71929688 70.92460938 -71.08984375 69.85546875 C-75.99460502 54.46756965 -73.46222749 36.36746093 -66.3125 22.1875 C-58.9951615 9.83259681 -48.0700403 0.46400473 -34.14379883 -3.53271484 C-23.40555607 -5.87333626 -9.72044301 -5.12775663 0 0 Z " fill="#0E2131" transform="translate(710,638)"/>
<path d="M0 0 C-1.42243218 3.31171389 -3.14578543 5.2285261 -5.8125 7.625 C-10.97753319 12.68654436 -15.1112564 18.70131491 -15.5625 26.125 C-14.35556631 34.43943209 -10.49351468 39.31908581 -4.12890625 44.7109375 C34.17717043 72.73510845 90.88622448 76.89806812 136.6875 81.1875 C137.44981934 81.25928467 138.21213867 81.33106934 138.99755859 81.4050293 C141.66353387 81.63470041 144.33006796 81.82167864 147 82 C148.24539551 82.08757568 149.49079102 82.17515137 150.77392578 82.26538086 C166.97276537 83.29246819 183.20522798 83.18735947 199.42919922 83.18530273 C202.78114299 83.18522219 206.13294799 83.19206341 209.48486328 83.20581055 C239.22885906 83.32571129 268.9734046 82.59542867 298.5625 79.3125 C299.31895813 79.23008057 300.07541626 79.14766113 300.85479736 79.06274414 C346.0044638 74.08487225 391.08994787 65.44054477 433.82910156 49.74926758 C435.87075379 49.04460826 437.89719008 48.48791668 440 48 C438.77609017 51.81722925 436.48243657 53.18590424 433.05395508 55.04272461 C432.3555249 55.39987549 431.65709473 55.75702637 430.9375 56.125 C429.81734497 56.70423218 429.81734497 56.70423218 428.67456055 57.29516602 C399.19389489 72.13526673 366.98094286 81.31742713 335 89 C333.88657227 89.27295898 332.77314453 89.54591797 331.62597656 89.82714844 C302.77912652 96.85427933 273.50997163 100.8464587 244 103.8125 C242.44440872 103.9703447 242.44440872 103.9703447 240.85739136 104.13137817 C218.71696012 106.35172874 196.72516461 107.17109471 174.47753906 107.13037109 C171.00321086 107.12500496 167.52901186 107.1303591 164.0546875 107.13671875 C102.65195859 107.15818862 9.86210675 105.35421 -37.4375 61 C-43.3406743 54.866989 -46.32911052 47.90400966 -46.21875 39.40625 C-45.34686866 29.81555527 -39.09414345 22.05792025 -32 16 C-24.38814288 10.39930245 -9.82364878 0 0 0 Z " fill="#0E2130" transform="translate(240,461)"/>
<path d="M0 0 C12.39388781 9.42692994 21.59000779 21.06472892 24.30078125 36.75 C24.56877216 40.93472423 24.57785231 45.12007599 24.61328125 49.3125 C24.65678711 50.98795898 24.65678711 50.98795898 24.70117188 52.69726562 C24.80942738 67.06193834 19.46037718 80.3410854 9.73828125 91 C-2.44333762 102.24457127 -18.13471397 107.41458535 -34.5625 107.15283203 C-49.59008063 106.5427674 -62.39539515 100.88644883 -73.22265625 90.44921875 C-86.68052259 75.78141805 -88.49655791 58.52423989 -87.87841797 39.49414062 C-87.50859188 33.83086374 -86.0284494 28.93418107 -83.69921875 23.75 C-83.29832031 22.81414063 -82.89742188 21.87828125 -82.484375 20.9140625 C-75.50191597 6.46340817 -64.2814878 -0.58027014 -49.99609375 -6.33984375 C-34.42591592 -11.52194281 -13.63239196 -9.16463325 0 0 Z " fill="#0E2130" transform="translate(384.69921875,642.25)"/>
<path d="M0 0 C10.83468127 8.9204923 17.33980758 21.39444114 19.46484375 35.1875 C20.69564631 52.87308751 18.8288287 70.28280419 6.90234375 84.28515625 C-3.68120697 95.97886963 -17.25559867 102.34717708 -33.07421875 103.4296875 C-50.69510597 103.77519509 -64.99950228 99.143693 -77.87890625 86.97265625 C-88.80675678 75.73518329 -93.52578581 61.23692546 -93.91015625 45.75 C-93.50599583 30.00391015 -88.97971749 14.76128012 -77.8203125 3.21484375 C-55.67325229 -16.43357377 -23.80752604 -17.0210972 0 0 Z " fill="#0E2131" transform="translate(855.53515625,645.8125)"/>
<path d="M0 0 C1.23685547 -0.03738281 2.47371094 -0.07476563 3.74804688 -0.11328125 C4.94107422 -0.12488281 6.13410156 -0.13648438 7.36328125 -0.1484375 C8.45552002 -0.16825684 9.54775879 -0.18807617 10.6730957 -0.20849609 C13.76245063 0.38950814 15.41218066 1.11041902 17.4992218 3.48794556 C20.34840836 8.01261846 21.81009693 13.23387031 23.49609375 18.2734375 C23.94319845 19.57439887 24.39166965 20.87489131 24.84141541 22.17494202 C25.79270849 24.93318948 26.73512351 27.69424093 27.67034912 30.45797729 C29.12562049 34.75821801 30.59997513 39.05174031 32.07861328 43.34399414 C32.57230449 44.77771184 33.06595686 46.21144291 33.55957031 47.64518738 C33.80329376 48.35309103 34.04701721 49.06099468 34.29812622 49.79034996 C35.03490437 51.93286129 35.76970701 54.07604033 36.50390625 56.21943665 C40.58307543 68.12259705 44.78505971 79.9791023 49.0625 91.8125 C49.65037625 93.44252141 50.23818799 95.07256609 50.82592773 96.70263672 C52.10997435 100.2612333 53.39738339 103.81859872 54.6875 107.375 C57.54233714 101.19929266 60.00024457 94.96707664 62.234375 88.54296875 C62.56293488 87.60865021 62.89149475 86.67433167 63.23001099 85.71170044 C63.93554467 83.70501194 64.63957421 81.69779407 65.34222412 79.69009399 C67.21598738 74.33950531 69.10445175 68.99410934 70.9921875 63.6484375 C71.37855377 62.55378677 71.76492004 61.45913605 72.16299438 60.33131409 C75.90709713 49.7333879 79.69099387 39.15011777 83.51623535 28.58120728 C84.21051506 26.66100262 84.90283573 24.74008844 85.59313965 22.81845093 C86.5543188 20.14399127 87.52227515 17.47208405 88.4921875 14.80078125 C88.91300095 13.62432541 88.91300095 13.62432541 89.34231567 12.42410278 C92.62817399 3.43432601 92.62817399 3.43432601 95.6875 0.375 C100.13928105 0.0930795 104.60285808 0.14316555 109.0625 0.125 C110.320625 0.104375 111.57875 0.08375 112.875 0.0625 C114.07898438 0.05734375 115.28296875 0.0521875 116.5234375 0.046875 C117.63251465 0.0375293 118.7415918 0.02818359 119.88427734 0.01855469 C123.07509112 0.42428436 123.62183355 1.07089043 125.6875 3.375 C123.73322198 10.21525799 121.46774084 16.86119475 118.90625 23.49609375 C118.54035767 24.45325287 118.17446533 25.41041199 117.79748535 26.39657593 C117.00868974 28.4595687 116.21840226 30.52199157 115.42675781 32.58389282 C113.28662321 38.15953162 111.15883097 43.73987366 109.03125 49.3203125 C108.59079346 50.4751564 108.15033691 51.63000031 107.6965332 52.81983948 C103.37378116 64.1692769 99.12777554 75.54679084 94.89801025 86.93115234 C93.6955702 90.16579066 92.49052689 93.39944733 91.28466797 96.6328125 C86.6216695 109.13790791 86.6216695 109.13790791 82.03106689 121.66969299 C81.02535491 124.43631656 80.00896003 127.19893068 78.99023438 129.96078491 C78.33912378 131.73975815 77.7043594 133.52468832 77.0703125 135.30981445 C76.49796875 136.85608521 76.49796875 136.85608521 75.9140625 138.43359375 C75.60033691 139.30298584 75.28661133 140.17237793 74.96337891 141.06811523 C73.28528732 144.1022307 71.63390838 145.54679282 68.6875 147.375 C65.52124023 147.89257812 65.52124023 147.89257812 61.99609375 147.90625 C60.72185547 147.91140625 59.44761719 147.9165625 58.13476562 147.921875 C57.47645752 147.91349609 56.81814941 147.90511719 56.13989258 147.89648438 C54.12654667 147.87501649 52.11675297 147.89633191 50.10351562 147.921875 C48.83056641 147.91671875 47.55761719 147.9115625 46.24609375 147.90625 C44.50283813 147.89948242 44.50283813 147.89948242 42.72436523 147.89257812 C38.93219265 147.24627168 37.94356271 146.4692132 35.6875 143.375 C34.47812236 140.74926827 33.42934245 138.21073419 32.4453125 135.50390625 C31.99987595 134.31880211 31.99987595 134.31880211 31.54544067 133.10975647 C30.58153965 130.53553707 29.63388086 127.95570642 28.6875 125.375 C28.05102003 123.65978398 27.4139728 121.94477836 26.77636719 120.22998047 C25.06013639 115.60068888 23.36027601 110.96554031 21.66513062 106.32849121 C20.12914939 102.12716956 18.58893947 97.92740155 17.04905701 93.72750854 C16.22640732 91.48370234 15.40395122 89.23982516 14.5816803 86.99588013 C9.9869362 74.45804288 5.37730532 61.92569909 0.76300049 49.39505005 C-0.59860732 45.69724372 -1.9586546 41.99886406 -3.31884766 38.30053711 C-4.1669177 35.99720565 -5.01505882 33.69390035 -5.86328125 31.390625 C-6.23970261 30.36640945 -6.61612396 29.34219391 -7.00395203 28.28694153 C-7.36656631 27.30311996 -7.7291806 26.3192984 -8.1027832 25.30566406 C-8.45627838 24.34470825 -8.80977356 23.38375244 -9.17398071 22.39367676 C-9.99210218 20.22450466 -10.83770724 18.06562445 -11.70077515 15.91394043 C-12.15940948 14.76639282 -12.61804382 13.61884521 -13.09057617 12.43652344 C-13.51449142 11.39639099 -13.93840668 10.35625854 -14.37516785 9.28460693 C-15.28999465 6.44485967 -15.50607728 4.33177018 -15.3125 1.375 C-10.86495472 -0.84877264 -4.8837391 0.05546838 0 0 Z " fill="#0E2231" transform="translate(176.3125,600.625)"/>
<path d="M0 0 C6.88035322 6.39268565 11.64700607 15.0241809 12.00871277 24.50466919 C12.01767809 25.92512748 12.02114487 27.34562697 12.02026367 28.76611328 C12.02362228 29.54377045 12.0269809 30.32142761 12.03044128 31.12265015 C12.03992707 33.68855391 12.04189284 36.25439231 12.04296875 38.8203125 C12.04618168 40.60342435 12.04954578 42.38653593 12.05305481 44.16964722 C12.0590392 47.90363171 12.06089529 51.63759308 12.06030273 55.37158203 C12.06020085 60.16473933 12.07388296 64.95774935 12.09107494 69.75087166 C12.10216877 73.43106778 12.1042228 77.11122792 12.10369301 80.79143906 C12.10487593 82.55934026 12.10931511 84.32724232 12.11702538 86.09512711 C12.12677773 88.5610834 12.12396685 91.02671472 12.11791992 93.49267578 C12.12353943 94.22726013 12.12915894 94.96184448 12.13494873 95.71868896 C12.1033196 100.7716804 12.1033196 100.7716804 9.875 103 C7.66015625 103.25878906 7.66015625 103.25878906 4.9375 103.265625 C3.96039062 103.26820313 2.98328125 103.27078125 1.9765625 103.2734375 C0.95304688 103.26570312 -0.07046875 103.25796875 -1.125 103.25 C-2.14851562 103.25773438 -3.17203125 103.26546875 -4.2265625 103.2734375 C-5.20367188 103.27085937 -6.18078125 103.26828125 -7.1875 103.265625 C-8.08597656 103.26336914 -8.98445312 103.26111328 -9.91015625 103.25878906 C-12.125 103 -12.125 103 -14.125 101 C-14.7578125 98.8359375 -14.7578125 98.8359375 -15.25 96.375 C-15.41757812 95.55773437 -15.58515625 94.74046875 -15.7578125 93.8984375 C-15.93957031 92.95871094 -15.93957031 92.95871094 -16.125 92 C-16.80304688 92.45890625 -17.48109375 92.9178125 -18.1796875 93.390625 C-32.15966462 102.60734122 -44.5451136 105.34094155 -61.125 104 C-65.12481521 103.15696907 -68.50541983 101.87773443 -72.125 100 C-72.85976563 99.649375 -73.59453125 99.29875 -74.3515625 98.9375 C-80.03194022 95.8739255 -83.07965282 91.5973671 -86.125 86 C-86.46660156 85.38382813 -86.80820312 84.76765625 -87.16015625 84.1328125 C-90.49750247 76.89930861 -90.32227565 68.12870056 -88.140625 60.60546875 C-84.12952721 50.56534434 -78.8051729 44.84008645 -69.125 40 C-56.60058135 35.43027968 -43.3099973 34.88738199 -30.125 34 C-28.59755341 33.88811399 -27.07019863 33.77496251 -25.54296875 33.66015625 C-22.40427793 33.42801397 -19.26544019 33.20682275 -16.125 33 C-16.52620043 27.18259379 -17.18640651 23.56047667 -21.125 19 C-28.61431835 13.54847292 -36.13318669 13.30151122 -45.125 14 C-53.22206644 15.66704309 -60.30589323 18.8622375 -67.46875 22.92578125 C-70.53121192 24.16427688 -72.0157104 23.96320384 -75.125 23 C-75.90271618 19.34751152 -76.55120636 15.69000626 -77.125 12 C-77.27324219 11.09378906 -77.42148437 10.18757812 -77.57421875 9.25390625 C-77.82257569 6.57897985 -77.84584832 4.59140409 -77.125 2 C-60.10506093 -17.5002317 -18.33776023 -15.0728771 0 0 Z " fill="#0E2130" transform="translate(610.125,645)"/>
<path d="M0 0 C1.14984375 -0.02900391 2.2996875 -0.05800781 3.484375 -0.08789062 C4.59039062 -0.09626953 5.69640625 -0.10464844 6.8359375 -0.11328125 C8.35646729 -0.13515503 8.35646729 -0.13515503 9.90771484 -0.1574707 C13.56958085 0.4758709 14.44318579 1.28434616 16.625 4.3125 C18.12405082 7.61088393 19.28876259 11.00107133 20.453125 14.4296875 C20.80582458 15.43726105 21.15852417 16.44483459 21.52191162 17.48294067 C22.65048583 20.71412759 23.76317673 23.95051562 24.875 27.1875 C25.97171869 30.34657415 27.07170373 33.50449887 28.17175293 36.66241455 C28.89952218 38.75301518 29.6258468 40.84411928 30.35070801 42.93572998 C33.99499368 53.43616895 37.79181194 63.87976192 41.625 74.3125 C44.61375664 67.06168215 47.27558011 59.73221119 49.8125 52.3125 C50.19688232 51.19617188 50.58126465 50.07984375 50.97729492 48.9296875 C52.19555016 45.39142904 53.41067456 41.85210893 54.625 38.3125 C56.22632038 33.64484856 57.83092218 28.97834411 59.4375 24.3125 C59.79803467 23.25804687 60.15856934 22.20359375 60.5300293 21.1171875 C66.68109228 3.25640772 66.68109228 3.25640772 69.625 0.3125 C72.0234375 0.06958008 72.0234375 0.06958008 75 0.08203125 C76.06734375 0.08396484 77.1346875 0.08589844 78.234375 0.08789062 C79.35328125 0.10013672 80.4721875 0.11238281 81.625 0.125 C83.30335938 0.1259668 83.30335938 0.1259668 85.015625 0.12695312 C93.34443681 0.17221841 93.34443681 0.17221841 95.625 1.3125 C95.04624267 6.60393413 93.75065891 11.2893841 91.87890625 16.27734375 C91.45516975 17.43156326 91.45516975 17.43156326 91.02287292 18.60910034 C90.0846586 21.15867731 89.1362998 23.70434521 88.1875 26.25 C87.518757 28.05867204 86.85047268 29.86751373 86.18261719 31.67651367 C84.38342613 36.54223005 82.57403153 41.40408754 80.7612915 46.26477051 C79.61583911 49.33707109 78.47249951 52.41015113 77.32958984 55.48339844 C72.1359934 69.44204911 66.90579564 83.38659419 61.625 97.3125 C61.3244873 98.1051123 61.02397461 98.89772461 60.71435547 99.71435547 C58.95136879 104.35785592 57.17002765 108.99379045 55.375 113.625 C54.96991211 114.68372314 54.56482422 115.74244629 54.14746094 116.83325195 C48.09826111 132.26734596 40.80476406 145.09193619 25.109375 151.97265625 C16.36880634 155.33365967 4.91627091 157.46245813 -4.1640625 154.359375 C-6.375 153.3125 -6.375 153.3125 -7.375 152.3125 C-7.52887638 149.36221626 -7.60671021 146.45151412 -7.625 143.5 C-7.645625 142.67951172 -7.66625 141.85902344 -7.6875 141.01367188 C-7.70984422 137.56986919 -7.65412264 134.95815734 -6.27734375 131.7734375 C-3.46842181 129.61627773 -1.19078245 129.80680999 2.3125 129.75 C10.61454914 129.34002226 15.75127289 128.67998281 21.5 122.4375 C25.06180326 117.95678402 26.90954844 114.9620474 26.35083008 109.15795898 C25.78078853 104.46087554 24.40193303 100.53448688 22.51171875 96.22265625 C22.18985092 95.46052322 21.86798309 94.6983902 21.53636169 93.91316223 C20.83760361 92.26117485 20.13367713 90.61136589 19.42510986 88.96356201 C17.48893001 84.45890878 15.59240409 79.9375545 13.69140625 75.41796875 C13.28678162 74.45856384 12.88215698 73.49915894 12.465271 72.51068115 C7.40111228 60.46718828 2.57990256 48.3263574 -2.25 36.1875 C-3.53653935 32.95525023 -4.82319335 29.72304686 -6.11058044 26.49113464 C-6.88148208 24.55504922 -7.65138119 22.61856418 -8.4200592 20.68159485 C-9.93197349 16.88060339 -11.45749638 13.09871269 -13.11767578 9.35986328 C-14.34734926 6.37951681 -14.66395827 4.49104092 -14.375 1.3125 C-10.15358817 -0.79820592 -4.63815515 0.03873738 0 0 Z " fill="#0E2130" transform="translate(424.375,635.6875)"/>
<path d="M0 0 C0.8379863 -0.0065712 1.6759726 -0.0131424 2.53935242 -0.01991272 C5.32115781 -0.03966244 8.10290873 -0.05132205 10.88476562 -0.0612793 C11.8401976 -0.06535482 12.79562958 -0.06943035 13.78001404 -0.07362938 C18.85285221 -0.09451326 23.92566327 -0.10879585 28.99853516 -0.11816406 C34.19038076 -0.12913622 39.38178674 -0.16342104 44.5734787 -0.20333576 C48.60264768 -0.22976249 52.63171699 -0.23787949 56.66096497 -0.24144554 C58.57114069 -0.2462574 60.48131365 -0.2577127 62.3914032 -0.27648354 C88.04529506 -0.51258725 107.45795392 5.38680797 127.92333984 20.77905273 C131.32847238 23.32778331 134.7812059 25.81079986 138.22851562 28.30200195 C139.32631348 29.10069702 139.32631348 29.10069702 140.44628906 29.91552734 C144.93505529 33.16783558 149.47045372 36.33887536 154.05273438 39.45825195 C155.63646851 40.54082275 155.63646851 40.54082275 157.25219727 41.64526367 C159.33791241 43.06707149 161.42944948 44.48038151 163.52709961 45.88452148 C164.47270752 46.53018066 165.41831543 47.17583984 166.39257812 47.84106445 C167.24158691 48.4129248 168.0905957 48.98478516 168.96533203 49.57397461 C169.86904541 50.36747314 169.86904541 50.36747314 170.79101562 51.17700195 C170.79101562 52.16700195 170.79101562 53.15700195 170.79101562 54.17700195 C169.78007088 54.19246315 169.78007088 54.19246315 168.748703 54.20823669 C160.85580866 54.32945573 152.96296754 54.45389136 145.07016373 54.58086014 C143.67727879 54.60326313 142.28439295 54.62560975 140.8915062 54.64789963 C125.2893242 54.89794748 109.68976521 55.15462198 94.09378052 55.67538452 C90.12832559 55.80313374 86.16210221 55.90443841 82.19584656 56.00379944 C78.29156651 56.10330433 74.38887899 56.22457182 70.48583984 56.36499023 C65.76409356 56.5316015 61.0429977 56.64866667 56.31918335 56.73776245 C54.48949221 56.78007035 52.66008793 56.83820664 50.83145142 56.9133606 C36.60398243 57.48442502 36.60398243 57.48442502 32.19506836 54.30493164 C30.38001616 52.00867512 29.06465482 49.80552877 27.79101562 47.17700195 C27.17355469 46.29012695 26.55609375 45.40325195 25.91992188 44.48950195 C25.40300781 43.72637695 24.88609375 42.96325195 24.35351562 42.17700195 C18.31469225 33.81645619 10.97078306 26.5521013 3.79101562 19.17700195 C3.18515625 18.5545459 2.57929688 17.93208984 1.95507812 17.29077148 C-4.73660341 10.29368469 -4.73660341 10.29368469 -12.20898438 4.17700195 C-11.87898438 3.18700195 -11.54898437 2.19700195 -11.20898438 1.17700195 C-7.44560217 -0.07745878 -3.92150913 0.0133209 0 0 Z " fill="#F8F8F7" transform="translate(461.208984375,285.822998046875)"/>
<path d="M0 0 C5.32744373 4.0313032 8.54158494 8.84778542 11 15 C11.4125 16.03125 11.825 17.0625 12.25 18.125 C14.49043934 29.70060324 13.72189787 41.87387715 7.08203125 51.89453125 C1.60081899 58.52049227 -3.97894523 62.11703721 -12.50390625 63.3671875 C-20.35654396 63.78501173 -26.66445771 61.05264141 -33.25 57 C-39.64636995 51.16855161 -42.68369234 41.78091252 -43.23828125 33.3984375 C-43.54747302 22.1150365 -42.10279411 11.5728457 -34 3 C-24.12980685 -5.68855031 -11.37273104 -6.5791055 0 0 Z " fill="#F9F9F7" transform="translate(368,662)"/>
<path d="M0 0 C7.75492388 5.04841338 11.6833603 12.153509 14.3125 20.875 C16.53682133 31.48330175 15.13894624 41.85936101 9.75 51.25 C6.04675631 56.76024813 1.40068085 61.01265574 -5 63 C-13.97816901 63.94602794 -22.39161754 64.34581941 -29.984375 58.83203125 C-36.99508879 52.45989023 -40.89183921 44.89508631 -41.43359375 35.3515625 C-41.45725842 33.77621886 -41.45813121 32.20038628 -41.4375 30.625 C-41.42847656 29.79500488 -41.41945313 28.96500977 -41.41015625 28.10986328 C-41.12219233 17.86914638 -38.4211256 10.32193373 -31.1953125 2.8828125 C-22.37351898 -4.6832097 -10.24607549 -5.26403878 0 0 Z " fill="#F9F8F7" transform="translate(832,661)"/>
<path d="M0 0 C7.09862126 4.41349061 10.52361405 10.46413515 12.4375 18.4375 C12.85288273 21.90821607 12.91549623 25.31962019 12.875 28.8125 C12.86670166 29.73498535 12.85840332 30.6574707 12.84985352 31.60791016 C12.63164224 40.40935718 11.2810446 47.61629347 5.3125 54.375 C-0.44472167 59.49253037 -7.567284 62.18513565 -15.27734375 61.75 C-23.6342728 60.6071721 -30.06715017 58.04968767 -35.5625 51.4375 C-41.25587463 41.65149665 -42.13148463 30.21626113 -39.9140625 19.22265625 C-37.20291392 10.96176335 -32.55599587 4.89376499 -25.0625 0.4375 C-17.52408899 -2.96285359 -7.6442535 -3.37462247 0 0 Z " fill="#F9F8F7" transform="translate(706.5625,659.5625)"/>
<path d="M0 0 C23.69970791 0.23439272 39.19300691 10.9325448 55.4375 27.25 C63.29731372 35.759783 70.12435606 45.46714015 74.4375 56.25 C69.8175 56.25 65.1975 56.25 60.4375 56.25 C58.77734375 53.02734375 57.1171875 49.8046875 55.45703125 46.58203125 C53.10279052 42.69776174 50.56765275 39.31507638 46.4375 37.25 C42.33891725 36.97962872 38.23148957 37.01836328 34.125 37 C32.98353516 36.979375 31.84207031 36.95875 30.66601562 36.9375 C29.56322266 36.93234375 28.46042969 36.9271875 27.32421875 36.921875 C26.31576904 36.9125293 25.30731934 36.90318359 24.26831055 36.89355469 C20.9772451 37.30795361 19.1151612 38.32848505 16.4375 40.25 C13.86947929 43.67402762 14.21500039 47.09667386 14.4375 51.25 C14.74636763 52.58921233 15.07415834 53.92452962 15.4375 55.25 C11.52055929 55.11100313 7.60402898 54.96261867 3.6875 54.8125 C2.02074219 54.75352539 2.02074219 54.75352539 0.3203125 54.69335938 C-0.74960937 54.65146484 -1.81953125 54.60957031 -2.921875 54.56640625 C-3.90639648 54.52974854 -4.89091797 54.49309082 -5.90527344 54.45532227 C-8.25173551 54.27401258 -10.30968412 53.90668181 -12.5625 53.25 C-12.71132856 47.00147615 -12.14816549 41.06332526 -11.28515625 34.87890625 C-11.15435165 33.91597153 -11.02354706 32.9530368 -10.88877869 31.96092224 C-10.61309918 29.94112157 -10.33478365 27.92167909 -10.05395508 25.90258789 C-9.62307624 22.79864172 -9.20257676 19.69340995 -8.78320312 16.58789062 C-8.5136335 14.62231171 -8.2434725 12.65681379 -7.97265625 10.69140625 C-7.84657486 9.75921768 -7.72049347 8.82702911 -7.59059143 7.86659241 C-7.47054245 7.01157639 -7.35049347 6.15656036 -7.22680664 5.27563477 C-7.1224379 4.52032974 -7.01806915 3.76502472 -6.91053772 2.98683167 C-6.14797092 -0.81864715 -3.38965663 0.04990905 0 0 Z " fill="#F8F8F7" transform="translate(390.5625,289.75)"/>
<path d="M0 0 C3.1312373 0.61207962 6.26326373 1.21998531 9.39541626 1.82736206 C11.42702201 2.2234463 13.45778573 2.62387644 15.48764038 3.02883911 C20.02908479 3.93132759 24.56132045 4.789306 29.14111328 5.47412109 C29.91596573 5.59369675 30.69081818 5.7132724 31.489151 5.83647156 C33.52500701 6.1429213 35.564289 6.42637398 37.60375977 6.70776367 C41.95865549 7.94134852 43.87172817 9.51157461 47.0625 12.6875 C48.02782838 17.37305546 46.67111153 22.24205258 44.125 26.25 C42.0625 28.6875 42.0625 28.6875 40.0625 29.6875 C31.79088714 30.32958867 23.34945519 29.85490176 15.0625 29.6875 C14.25804443 29.67136658 13.45358887 29.65523315 12.62475586 29.63861084 C7.24148807 29.52307964 1.86145103 29.36182094 -3.51925659 29.15957642 C-5.32340977 29.09543977 -7.12791844 29.04055828 -8.93264771 28.99545288 C-20.31072803 28.69787739 -31.50345394 28.3069586 -39.97924805 19.58691406 C-43.39630621 15.3526073 -45.61953129 11.17825486 -46.3125 5.75 C-45.83415688 1.84353116 -44.35629021 -0.2534418 -41.9375 -3.3125 C-30.78379865 -8.88935067 -11.39790409 -2.28240186 0 0 Z " fill="#F7F7F6" transform="translate(598.9375,388.3125)"/>
<path d="M0 0 C-0.66 0.66 -1.32 1.32 -2 2 C-1.34 1.773125 -0.68 1.54625 0 1.3125 C4.18368542 0.87669944 7.21203546 2.33630342 11 4 C10.71125 4.71027344 10.4225 5.42054688 10.125 6.15234375 C9.568125 7.53099609 9.568125 7.53099609 9 8.9375 C8.443125 10.31228516 8.443125 10.31228516 7.875 11.71484375 C6.940402 13.74782158 6.940402 13.74782158 7 15 C7.495 14.835 7.99 14.67 8.5 14.5 C12.03444089 13.79311182 15.39690701 13.93994845 19 14 C18.34 17.3 17.68 20.6 17 24 C16.67 24 16.34 24 16 24 C15.875 18.25 15.875 18.25 17 16 C-3.8131112 18.47247952 -18.9714626 28.99194922 -31.78515625 45.18359375 C-32.51605469 46.11300781 -33.24695313 47.04242188 -34 48 C-35.14275391 49.37865234 -35.14275391 49.37865234 -36.30859375 50.78515625 C-37.03175781 51.66042969 -37.75492187 52.53570312 -38.5 53.4375 C-39.1496875 54.21996094 -39.799375 55.00242187 -40.46875 55.80859375 C-41.96128406 57.94459275 -42.58227656 59.45304736 -43 62 C-42.09121094 61.98259766 -42.09121094 61.98259766 -41.1640625 61.96484375 C-35.04075052 61.89890039 -29.07906669 62.27568567 -23 63 C-23 63.33 -23 63.66 -23 64 C-26.12498063 64.02895976 -29.2499269 64.04678483 -32.375 64.0625 C-33.70917969 64.07506836 -33.70917969 64.07506836 -35.0703125 64.08789062 C-35.92109375 64.09111328 -36.771875 64.09433594 -37.6484375 64.09765625 C-38.82672119 64.10551147 -38.82672119 64.10551147 -40.02880859 64.11352539 C-42 64 -42 64 -44 63 C-44 61.68 -44 60.36 -44 59 C-44.54269531 59.30035156 -45.08539063 59.60070312 -45.64453125 59.91015625 C-46.35996094 60.29042969 -47.07539063 60.67070312 -47.8125 61.0625 C-48.52019531 61.44535156 -49.22789062 61.82820313 -49.95703125 62.22265625 C-52 63 -52 63 -55 62 C-56.1875 59.9375 -56.1875 59.9375 -57 58 C-60.39914975 59.13304992 -61.05254451 60.12518475 -63 63 C-64.32 62.67 -65.64 62.34 -67 62 C-67.33 62.99 -67.66 63.98 -68 65 C-70.64 64.34 -73.28 63.68 -76 63 C-75.505 60.03 -75.505 60.03 -75 57 C-78.04913228 55.98888907 -78.04913228 55.98888907 -81 57 C-79.76071219 53.28213657 -78.32529278 52.44896275 -75.25 50.0625 C-70.81672564 46.52623057 -66.58421076 42.86743998 -62.4375 39 C-61.88674805 38.48783936 -61.33599609 37.97567871 -60.76855469 37.44799805 C-59.17769467 35.96676309 -57.58860454 34.48365322 -56 33 C-14.37036884 -5.80409058 -14.37036884 -5.80409058 0 0 Z " fill="#0E2131" transform="translate(353,277)"/>
<path d="M0 0 C-0.18030762 0.66249756 -0.36061523 1.32499512 -0.54638672 2.00756836 C-2.93163423 11.11313169 -4.54951957 20.29201036 -6.125 29.5625 C-6.52075396 31.87652789 -6.91782867 34.1903089 -7.31759644 36.50364685 C-7.56386015 37.93002451 -7.80773068 39.35681805 -8.04885864 40.78407288 C-8.53681244 43.62138682 -9.08759142 46.26277425 -10 49 C-21.01107837 49.27042557 -31.8502182 48.42151198 -42.8125 47.5 C-44.58394512 47.35498838 -46.35542935 47.21045382 -48.12695312 47.06640625 C-52.41843879 46.71642609 -56.70934609 46.36002809 -61 46 C-60.46583084 42.40621788 -59.72747692 40.19491965 -57.41015625 37.3984375 C-56.87817627 36.74866943 -56.34619629 36.09890137 -55.7980957 35.42944336 C-55.22534912 34.75147705 -54.65260254 34.07351074 -54.0625 33.375 C-53.4749292 32.66931885 -52.8873584 31.9636377 -52.28198242 31.23657227 C-50.53280749 29.14768252 -48.76845776 27.07257116 -47 25 C-46.52755859 24.43812988 -46.05511719 23.87625977 -45.56835938 23.29736328 C-40.02609365 16.73098324 -34.36044514 11.45790687 -27 7 C-26.37996094 6.61328125 -25.75992188 6.2265625 -25.12109375 5.828125 C-18.40224857 2.05512339 -7.53600207 -2.27500008 0 0 Z " fill="#F8F7F6" transform="translate(371,293)"/>
<path d="M0 0 C0.86560547 0.00451172 1.73121094 0.00902344 2.62304688 0.01367188 C4.72789539 0.02530087 6.83270758 0.04322927 8.9375 0.0625 C9.76818625 16.49162796 9.76818625 16.49162796 4.9375 22.0625 C-2.75875208 28.78902432 -11.40747014 31.67336339 -21.546875 31.34765625 C-26.42630288 30.7945534 -29.13210666 29.09347641 -32.375 25.5 C-35.22692797 21.38054849 -35.78343669 18.01351103 -35.0625 13.0625 C-33.60453903 8.74319316 -31.62676071 5.92271944 -27.59765625 3.70703125 C-18.58751604 0.2065981 -9.56017933 -0.09641763 0 0 Z " fill="#F7F6F5" transform="translate(585.0625,696.9375)"/>
<path d="M0 0 C0.99 0.33 1.98 0.66 3 1 C4.1328125 3.36328125 4.1328125 3.36328125 5.125 6.3125 C5.45757813 7.27800781 5.79015625 8.24351562 6.1328125 9.23828125 C7.39130981 13.24619837 8.12452542 16.53227129 8.0625 20.75 C8.05347656 21.54921875 8.04445313 22.3484375 8.03515625 23.171875 C8.02355469 23.77515625 8.01195312 24.3784375 8 25 C5.8973294 25.36294314 3.79278943 25.71506972 1.6875 26.0625 C0.51574219 26.25972656 -0.65601563 26.45695312 -1.86328125 26.66015625 C-5 27 -5 27 -8 26 C-8.4461204 18.3829072 -8.35761068 9.61671469 -3.6875 3.1953125 C-2.3125 1.8125 -2.3125 1.8125 0 0 Z " fill="#F6F6F5" transform="translate(773,384)"/>
<path d="M0 0 C0.96621529 -0.0098568 0.96621529 -0.0098568 1.95195007 -0.01991272 C4.08743404 -0.03965031 6.22284758 -0.05131067 8.35839844 -0.0612793 C9.45318638 -0.06739259 9.45318638 -0.06739259 10.57009125 -0.07362938 C14.43490822 -0.09449444 18.29968966 -0.1087929 22.16455078 -0.11816406 C26.15044113 -0.12921542 30.13577118 -0.16359857 34.12146378 -0.20333576 C37.19105035 -0.22952661 40.26050409 -0.23785816 43.33019257 -0.24144554 C44.7989657 -0.24630703 46.26773307 -0.25790867 47.73639679 -0.27648354 C49.79736695 -0.30092432 51.85689699 -0.29990195 53.91796875 -0.29296875 C55.08886047 -0.29883499 56.2597522 -0.30470123 57.46612549 -0.31074524 C61.44918931 0.28671433 63.59226756 1.67877692 66.71777344 4.17700195 C67.70777344 5.66200195 67.70777344 5.66200195 68.71777344 7.17700195 C64.71777344 5.17700195 64.71777344 5.17700195 62.99169922 4.12187195 C59.93393887 2.85130013 57.39409035 2.93010957 54.08496094 2.93408203 C53.4275592 2.93218369 52.77015747 2.93028534 52.09283447 2.92832947 C49.92602501 2.92463357 47.75955297 2.93530933 45.59277344 2.9465332 C44.08349649 2.94772587 42.5742188 2.94817798 41.06494141 2.94792175 C37.90424949 2.94948461 34.74367116 2.95775881 31.58300781 2.97119141 C27.53442325 2.98818089 23.48596344 2.99200559 19.43734741 2.99124622 C16.32152112 2.99151834 13.20572202 2.99700627 10.08990479 3.00424767 C8.59719041 3.00742658 7.10447295 3.00939992 5.61175537 3.01014137 C3.52464568 3.01231319 1.43766732 3.02107555 -0.64941406 3.03173828 C-2.43001221 3.03745598 -2.43001221 3.03745598 -4.24658203 3.04328918 C-6.78500745 3.15510066 -8.86932313 3.42986669 -11.28222656 4.17700195 C-7.55414889 0.27946621 -5.39583184 0.04548879 0 0 Z " fill="#1C2934" transform="translate(437.2822265625,234.822998046875)"/>
<path d="M0 0 C8.62823015 2.69632192 15.92194883 9.73014041 21 17 C24.54438085 24.00102951 27.60140411 32.01211975 27 40 C26.34 40.99 25.68 41.98 25 43 C25.66 43 26.32 43 27 43 C26.67 43.66 26.34 44.32 26 45 C21.71 45 17.42 45 13 45 C13 44.67 13 44.34 13 44 C17.95 43.505 17.95 43.505 23 43 C21.97493351 34.51622606 20.26431995 26.90726045 17 19 C12.75279044 20.41539459 12.75279044 20.41539459 10.1875 24.125 C9.795625 25.07375 9.40375 26.0225 9 27 C8.67 26.01 8.34 25.02 8 24 C9.5625 20.875 9.5625 20.875 12 18 C15.25 17.125 15.25 17.125 18 17 C13.39241688 11.08719709 8.33141175 6.81070175 2.16015625 2.56640625 C1.44730469 2.04949219 0.73445312 1.53257812 0 1 C0 0.67 0 0.34 0 0 Z " fill="#0D1319" transform="translate(758,366)"/>
<path d="M0 0 C-1.42243218 3.31171389 -3.14578543 5.2285261 -5.8125 7.625 C-10.9912438 12.69998027 -15.19170415 18.71241453 -15.4375 26.1875 C-14.99329454 30.0584333 -14.22775924 33.31672227 -13 37 C-15.77596625 34.46542212 -16.88316332 32.57865381 -17.16796875 28.73046875 C-17.20631579 23.73768415 -16.9716582 19.68268823 -15 15 C-15.99 15 -16.98 15 -18 15 C-18.99 14.34 -19.98 13.68 -21 13 C-20.67 12.34 -20.34 11.68 -20 11 C-20.99 11.33 -21.98 11.66 -23 12 C-23 11.34 -23 10.68 -23 10 C-20.43873936 8.705826 -17.87606642 7.41459216 -15.3125 6.125 C-14.59126953 5.76019531 -13.87003906 5.39539063 -13.12695312 5.01953125 C-3.13352273 0 -3.13352273 0 0 0 Z " fill="#0C1823" transform="translate(240,461)"/>
<path d="M0 0 C-1.48537502 3.96387868 -3.59943007 5.30269169 -7.25 7.3125 C-8.64992188 8.11107422 -8.64992188 8.11107422 -10.078125 8.92578125 C-13.51091517 10.18783646 -15.49801608 9.88585688 -19 9 C-19.33 9.66 -19.66 10.32 -20 11 C-20.99 10.67 -21.98 10.34 -23 10 C-25.28165971 10.43023185 -25.28165971 10.43023185 -27.74609375 11.25 C-28.66583984 11.5284375 -29.58558594 11.806875 -30.53320312 12.09375 C-32.46584171 12.69680602 -34.39813529 13.30096879 -36.33007812 13.90625 C-37.25111328 14.1846875 -38.17214844 14.463125 -39.12109375 14.75 C-39.9608374 15.01296875 -40.80058105 15.2759375 -41.66577148 15.546875 C-44.1616617 16.03138208 -45.61724816 15.81266835 -48 15 C-47.21052979 14.75878418 -46.42105957 14.51756836 -45.60766602 14.26904297 C-41.92479283 13.14141942 -38.24315412 12.00984182 -34.5625 10.875 C-33.90261078 10.6715799 -33.24272156 10.46815979 -32.56283569 10.25857544 C-23.89225219 7.58010711 -15.26708411 4.81699271 -6.75024414 1.67724609 C-2.18080057 0 -2.18080057 0 0 0 Z " fill="#11181E" transform="translate(680,509)"/>
<path d="M0 0 C1.65 0.33 3.3 0.66 5 1 C4.835 1.804375 4.67 2.60875 4.5 3.4375 C3.96808161 5.7284443 3.96808161 5.7284443 4 7 C4.495 6.835 4.99 6.67 5.5 6.5 C9.03444089 5.79311182 12.39690701 5.93994845 16 6 C15.34 9.3 14.68 12.6 14 16 C13.67 16 13.34 16 13 16 C12.875 10.25 12.875 10.25 14 8 C6.94090922 9.12276571 -0.03843148 10.37563401 -7 12 C-6.34 11.67 -5.68 11.34 -5 11 C-5.22558594 10.41734375 -5.45117188 9.8346875 -5.68359375 9.234375 C-6 7 -6 7 -4.78515625 5.078125 C-4.21667969 4.47484375 -3.64820313 3.8715625 -3.0625 3.25 C-2.49660156 2.63640625 -1.93070312 2.0228125 -1.34765625 1.390625 C-0.90292969 0.93171875 -0.45820313 0.4728125 0 0 Z " fill="#0C1A26" transform="translate(356,285)"/>
<path d="M0 0 C0.66 0.33 1.32 0.66 2 1 C1.25556641 1.74830078 1.25556641 1.74830078 0.49609375 2.51171875 C-5.4454362 8.79147621 -9.1941071 15.30496029 -13 23 C-14 20 -14 20 -13 17 C-13.66 16.01 -14.32 15.02 -15 14 C-14.35546875 11.80859375 -14.35546875 11.80859375 -13.1875 9.4375 C-12.80980469 8.65246094 -12.43210937 7.86742187 -12.04296875 7.05859375 C-11.69878906 6.37925781 -11.35460937 5.69992187 -11 5 C-10.67 4.34 -10.34 3.68 -10 3 C-8.66666667 3.66666667 -7.33333333 4.33333333 -6 5 C-4.02 3.35 -2.04 1.7 0 0 Z " fill="#0B1925" transform="translate(479,401)"/>
<path d="M0 0 C0.99 0.33 1.98 0.66 3 1 C2.67 1.33 2.34 1.66 2 2 C3.65 2 5.3 2 7 2 C7.33 2.99 7.66 3.98 8 5 C6.75 6.5 6.75 6.5 5 8 C3.68 8 2.36 8 1 8 C0.01 9.485 0.01 9.485 -1 11 C-1.99 12.485 -1.99 12.485 -3 14 C-3.33 13.34 -3.66 12.68 -4 12 C-4.66 12 -5.32 12 -6 12 C-5.73781251 7.5428126 -5.42288711 5.48477302 -2.4375 2.0625 C-1.633125 1.381875 -0.82875 0.70125 0 0 Z " fill="#0B1A28" transform="translate(410,327)"/>
<path d="M0 0 C3.97915085 -0.02934144 7.95827337 -0.04691265 11.9375 -0.0625 C13.05447266 -0.07087891 14.17144531 -0.07925781 15.32226562 -0.08789062 C21.63992667 -0.10641749 27.73763227 0.15660583 34 1 C30.955498 3.029668 30.39723672 3.24856301 26.98754883 3.22705078 C26.18694534 3.22689972 25.38634186 3.22674866 24.56147766 3.22659302 C23.70201035 3.21627045 22.84254303 3.20594788 21.95703125 3.1953125 C21.0734343 3.1924826 20.18983734 3.18965271 19.27946472 3.18673706 C16.45700546 3.17554097 13.63486338 3.15043751 10.8125 3.125 C8.89909312 3.11496946 6.98568127 3.10584374 5.07226562 3.09765625 C0.38138818 3.07560351 -4.30925213 3.04107762 -9 3 C-9 2.67 -9 2.34 -9 2 C-4.545 1.505 -4.545 1.505 0 1 C0 0.67 0 0.34 0 0 Z " fill="#213240" transform="translate(572,340)"/>
<path d="M0 0 C4.74582347 0.8607621 9.45938004 1.57223616 14.25 2.125 C13.26 3.61 13.26 3.61 12.25 5.125 C9.87471849 4.98296663 7.49984749 4.83648388 5.125 4.6875 C4.45984375 4.64818359 3.7946875 4.60886719 3.109375 4.56835938 C-0.90018817 4.312848 -4.79994196 3.85717587 -8.75 3.125 C-9.08 2.135 -9.41 1.145 -9.75 0.125 C-6.22752894 -1.06593069 -3.62148096 -0.68489148 0 0 Z " fill="#1A2630" transform="translate(332.75,559.875)"/>
<path d="M0 0 C0.99 0.66 1.98 1.32 3 2 C3.22107787 4.7885289 3.28107535 7.34653181 3.1875 10.125 C3.17396484 10.87910156 3.16042969 11.63320313 3.14648438 12.41015625 C3.11109985 14.27374127 3.05729167 16.13695978 3 18 C4.32 18.66 5.64 19.32 7 20 C4.625 20.1875 4.625 20.1875 2 20 C-0.1519437 16.77208445 -0.20086443 15.71599191 0 12 C-0.99 12.33 -1.98 12.66 -3 13 C-4.125 9.25 -4.125 9.25 -3 7 C-2.34 7 -1.68 7 -1 7 C-0.67 4.69 -0.34 2.38 0 0 Z " fill="#0A1723" transform="translate(763,392)"/>
<path d="M0 0 C0.66 0.33 1.32 0.66 2 1 C1.67 1.66 1.34 2.32 1 3 C3.475 3.495 3.475 3.495 6 4 C1.64564752 6.90290165 -1.28690737 7.12087372 -6.41796875 7.09765625 C-7.67158203 7.09443359 -8.92519531 7.09121094 -10.21679688 7.08789062 C-11.52712891 7.07951172 -12.83746094 7.07113281 -14.1875 7.0625 C-15.52278481 7.05748317 -16.85807141 7.05292059 -18.19335938 7.04882812 C-21.46228473 7.03702695 -24.73111991 7.02056297 -28 7 C-28 6.67 -28 6.34 -28 6 C-20.41 6 -12.82 6 -5 6 C-4.34 4.68 -3.68 3.36 -3 2 C-2.01 1.34 -1.02 0.68 0 0 Z " fill="#09121B" transform="translate(310,480)"/>
<path d="M0 0 C10.89 0 21.78 0 33 0 C33 0.33 33 0.66 33 1 C25.08 1 17.16 1 9 1 C8.67 2.32 8.34 3.64 8 5 C7.01 5 6.02 5 5 5 C4.67 5.66 4.34 6.32 4 7 C3.01 6.34 2.02 5.68 1 5 C0.67 3.35 0.34 1.7 0 0 Z " fill="#13293A" transform="translate(597,419)"/>
<path d="M0 0 C9.72657452 -0.11237377 19.30429046 0.07027443 29 1 C29 1.66 29 2.32 29 3 C24.38 3 19.76 3 15 3 C14.67 4.65 14.34 6.3 14 8 C13.01 8.495 13.01 8.495 12 9 C12 8.34 12 7.68 12 7 C11.34 6.67 10.68 6.34 10 6 C10.33 5.34 10.66 4.68 11 4 C10.34 4 9.68 4 9 4 C9 3.01 9 2.02 9 1 C6.03 1 3.06 1 0 1 C0 0.67 0 0.34 0 0 Z " fill="#06101A" transform="translate(332,341)"/>
<path d="M0 0 C0.495 0.99 0.495 0.99 1 2 C0.566875 2.47050781 0.13375 2.94101562 -0.3125 3.42578125 C-0.869375 4.04839844 -1.42625 4.67101562 -2 5.3125 C-2.556875 5.92738281 -3.11375 6.54226563 -3.6875 7.17578125 C-5.29201498 9.03131335 -5.29201498 9.03131335 -5 12 C-6.32 11.67 -7.64 11.34 -9 11 C-9 11.99 -9 12.98 -9 14 C-16.65083958 15.24911667 -24.27440986 15.09053426 -32 15 C-32 14.67 -32 14.34 -32 14 C-30.44152344 13.87044922 -30.44152344 13.87044922 -28.8515625 13.73828125 C-18.52590804 12.75281963 -9.55341132 11.39614627 -2.375 3.1875 C-1.59125 2.135625 -0.8075 1.08375 0 0 Z " fill="#090F15" transform="translate(715,754)"/>
<path d="M0 0 C0.33 0 0.66 0 1 0 C1.33 2.97 1.66 5.94 2 9 C2.99 8.67 3.98 8.34 5 8 C6.1875 10.25 6.1875 10.25 7 13 C5.75 15.3125 5.75 15.3125 4 17 C3.34 17 2.68 17 2 17 C1.67 17.66 1.34 18.32 1 19 C0.34 18.67 -0.32 18.34 -1 18 C-1.09706112 11.88514973 -0.77040851 6.06696699 0 0 Z " fill="#081622" transform="translate(540,448)"/>
<path d="M0 0 C0.33 0.66 0.66 1.32 1 2 C-1.31 3.32 -3.62 4.64 -6 6 C-5.67 6.66 -5.34 7.32 -5 8 C-5.99 8.33 -6.98 8.66 -8 9 C-8.33 8.67 -8.66 8.34 -9 8 C-9.556875 9.4540625 -9.556875 9.4540625 -10.125 10.9375 C-12 14 -12 14 -15 14.875 C-16.99869975 14.95827916 -18.99956602 15 -21 15 C-14.64468507 8.85588889 -7.57543449 4.4459486 0 0 Z " fill="#0A141D" transform="translate(330,285)"/>
<path d="M0 0 C0.99 1.32 1.98 2.64 3 4 C2.690625 4.53625 2.38125 5.0725 2.0625 5.625 C0.82172561 8.3984957 0.4090325 11.00042837 0 14 C-0.99 14.33 -1.98 14.66 -3 15 C-5.11970075 11.50872818 -5.11970075 11.50872818 -4.5 8.875 C-4.335 8.25625 -4.17 7.6375 -4 7 C-4.66 6.34 -5.32 5.68 -6 5 C-3.69 5 -1.38 5 1 5 C0.67 3.35 0.34 1.7 0 0 Z " fill="#0D2233" transform="translate(405,340)"/>
<path d="M0 0 C3.01388073 1.35058114 5.1034677 2.85604775 7.42578125 5.1953125 C8.05476318 5.8253418 8.68374512 6.45537109 9.33178711 7.10449219 C10.31223999 8.10464355 10.31223999 8.10464355 11.3125 9.125 C11.98095947 9.80208008 12.64941895 10.47916016 13.33813477 11.17675781 C26 24.06917638 26 24.06917638 26 28 C20.7346053 22.8299545 15.59445913 17.63824156 10.8046875 12.0234375 C7.92584005 8.79563884 4.82099831 5.80073792 1.72265625 2.78515625 C0 1 0 1 0 0 Z " fill="#12161B" transform="translate(456,297)"/>
<path d="M0 0 C10.23 0 20.46 0 31 0 C31 0.33 31 0.66 31 1 C27.37 1.33 23.74 1.66 20 2 C20 2.33 20 2.66 20 3 C17.2291017 3.02696009 14.4584655 3.04681952 11.6875 3.0625 C10.50897461 3.07506836 10.50897461 3.07506836 9.30664062 3.08789062 C8.54931641 3.09111328 7.79199219 3.09433594 7.01171875 3.09765625 C5.96697388 3.10551147 5.96697388 3.10551147 4.90112305 3.11352539 C3 3 3 3 0 2 C0 1.34 0 0.68 0 0 Z " fill="#1F313E" transform="translate(648,477)"/>
<path d="M0 0 C0.33 0.66 0.66 1.32 1 2 C-0.70625501 4.78388975 -1.47626739 5.85384206 -4.6875 6.75 C-5.8321875 6.87375 -5.8321875 6.87375 -7 7 C-6.938125 8.093125 -6.87625 9.18625 -6.8125 10.3125 C-7 14 -7 14 -8.5 15.9375 C-8.995 16.288125 -9.49 16.63875 -10 17 C-10 16.34 -10 15.68 -10 15 C-10.66 15 -11.32 15 -12 15 C-11.814375 14.236875 -11.62875 13.47375 -11.4375 12.6875 C-10.77180827 9.91032625 -10.77180827 9.91032625 -12 7 C-11.67 6.34 -11.34 5.68 -11 5 C-8.98189526 4.80469954 -6.96376087 4.60968517 -4.9453125 4.41796875 C-2.76271154 4.13748378 -2.76271154 4.13748378 -1 1.9375 C-0.67 1.298125 -0.34 0.65875 0 0 Z " fill="#0A1A26" transform="translate(304,462)"/>
<path d="M0 0 C6.49850211 0.51553879 12.66226532 1.46667709 19 3 C19 3.33 19 3.66 19 4 C15.7 4 12.4 4 9 4 C9.99 4.66 10.98 5.32 12 6 C11.34 6 10.68 6 10 6 C9.67 6.99 9.34 7.98 9 9 C9 8.01 9 7.02 9 6 C5.9254644 6.7763932 5.9254644 6.7763932 4 9 C2.75453595 6.50907189 3.2232422 5.58919267 4 3 C2.68 2.01 1.36 1.02 0 0 Z " fill="#091520" transform="translate(301,532)"/>
<path d="M0 0 C2.34058637 2.12780579 3.70700306 4.11562221 5 7 C6.98 6.34 8.96 5.68 11 5 C8.14431759 8.14125065 5.72266333 9.83193528 1.4375 10.25 C-1 10 -1 10 -4 8 C-4 7.34 -4 6.68 -4 6 C-3 5 -2 4 -1 3 C-0.67 2.01 -0.34 1.02 0 0 Z " fill="#091825" transform="translate(539,498)"/>
<path d="M0 0 C2.31243792 -0.02685412 4.6249627 -0.04632841 6.9375 -0.0625 C8.22527344 -0.07410156 9.51304687 -0.08570313 10.83984375 -0.09765625 C14 0 14 0 15 1 C17.32817964 1.36760731 19.6618385 1.70241581 22 2 C21.01 3.65 20.02 5.3 19 7 C18.01 6.67 17.02 6.34 16 6 C16 5.34 16 4.68 16 4 C10.72 3.67 5.44 3.34 0 3 C0 2.01 0 1.02 0 0 Z " fill="#1E313F" transform="translate(498,342)"/>
<path d="M0 0 C0 0.33 0 0.66 0 1 C-7.41143564 2.42625566 -14.44862068 3.30071865 -22 3 C-22 2.67 -22 2.34 -22 2 C-24.97 1.67 -27.94 1.34 -31 1 C-31 0.67 -31 0.34 -31 0 C-20.57188716 -0.70902441 -10.41164047 -1.35081164 0 0 Z " fill="#1A2B3A" transform="translate(406,565)"/>
<path d="M0 0 C0.33 0 0.66 0 1 0 C1.33 6.6 1.66 13.2 2 20 C-0.64 20 -3.28 20 -6 20 C-6 19.34 -6 18.68 -6 18 C-5.01 17.67 -4.02 17.34 -3 17 C-2.67 14.69 -2.34 12.38 -2 10 C-1.67 10 -1.34 10 -1 10 C-0.67 6.7 -0.34 3.4 0 0 Z " fill="#07121D" transform="translate(459,447)"/>
<path d="M0 0 C1.25541557 3.76624671 0.37061958 5.37188934 -1 9 C-0.34 9 0.32 9 1 9 C0.67 10.65 0.34 12.3 0 14 C-0.33 14 -0.66 14 -1 14 C-1.33 20.6 -1.66 27.2 -2 34 C-2.33 34 -2.66 34 -3 34 C-3.08755672 29.64596135 -3.14057969 25.29215123 -3.1875 20.9375 C-3.21263672 19.70837891 -3.23777344 18.47925781 -3.26367188 17.21289062 C-3.31631874 10.70222829 -3.23999169 5.72313493 0 0 Z " fill="#050A0F" transform="translate(231,386)"/>
<path d="M0 0 C6.93 0 13.86 0 21 0 C20.67 0.99 20.34 1.98 20 3 C13.73 3 7.46 3 1 3 C0.67 2.01 0.34 1.02 0 0 Z " fill="#1E2D39" transform="translate(679,789)"/>
<path d="M0 0 C2.16852831 1.07671707 4.32568613 2.16978898 6.47265625 3.2890625 C7.75462891 3.95035156 7.75462891 3.95035156 9.0625 4.625 C9.91972656 5.07101562 10.77695312 5.51703125 11.66015625 5.9765625 C14.03244988 7.2003693 14.03244988 7.2003693 17 7 C17.33 6.34 17.66 5.68 18 5 C18.99 5.33 19.98 5.66 21 6 C20.67 6.99 20.34 7.98 20 9 C22.97 9.495 22.97 9.495 26 10 C26 10.33 26 10.66 26 11 C17.29996672 11.83654166 9.03550738 8.76523467 2.25 3.25 C1.5075 2.5075 0.765 1.765 0 1 C0 0.67 0 0.34 0 0 Z " fill="#080B10" transform="translate(655,733)"/>
<path d="M0 0 C0.33 0.99 0.66 1.98 1 3 C3.64 2.34 6.28 1.68 9 1 C9 1.99 9 2.98 9 4 C15.93 4.495 15.93 4.495 23 5 C23 5.33 23 5.66 23 6 C19.35418313 6.02887512 15.70839537 6.04675585 12.0625 6.0625 C10.50112305 6.07506836 10.50112305 6.07506836 8.90820312 6.08789062 C7.91884766 6.09111328 6.92949219 6.09433594 5.91015625 6.09765625 C4.53549194 6.10551147 4.53549194 6.10551147 3.13305664 6.11352539 C1 6 1 6 0 5 C-0.04063832 3.33382885 -0.042721 1.66611905 0 0 Z " fill="#142A3B" transform="translate(597,740)"/>
<path d="M0 0 C1.26328125 0.20367188 2.5265625 0.40734375 3.828125 0.6171875 C4.79234375 0.78476562 5.7565625 0.95234375 6.75 1.125 C6.75 1.455 6.75 1.785 6.75 2.125 C-1.59332544 3.31690363 -9.84323022 3.21783549 -18.25 3.125 C-18.25 2.795 -18.25 2.465 -18.25 2.125 C-17.1775 2.00125 -16.105 1.8775 -15 1.75 C-11.44631886 1.39927803 -11.44631886 1.39927803 -9.46875 0.03125 C-6.14038357 -1.32822361 -3.50419638 -0.58403273 0 0 Z " fill="#0A131B" transform="translate(473.25,562.875)"/>
<path d="M0 0 C0.66 0 1.32 0 2 0 C1.96519531 0.81984375 1.93039062 1.6396875 1.89453125 2.484375 C1.85392578 4.10085938 1.85392578 4.10085938 1.8125 5.75 C1.77769531 6.81734375 1.74289062 7.8846875 1.70703125 8.984375 C2.02917214 12.30027855 2.77148914 13.59016673 5 16 C3.02 16.66 1.04 17.32 -1 18 C-1 18.66 -1 19.32 -1 20 C-1.66 19.67 -2.32 19.34 -3 19 C-2.68289063 18.32582031 -2.36578125 17.65164063 -2.0390625 16.95703125 C-0.81297609 13.46775527 -0.58180931 10.37559942 -0.375 6.6875 C-0.30023437 5.43324219 -0.22546875 4.17898438 -0.1484375 2.88671875 C-0.09945312 1.93410156 -0.05046875 0.98148438 0 0 Z " fill="#131B23" transform="translate(594,697)"/>
<path d="M0 0 C0.66 0.33 1.32 0.66 2 1 C1 3 0 5 -1 7 C-3.0625 7.625 -3.0625 7.625 -5 8 C-5 7.01 -5 6.02 -5 5 C-9.29 5 -13.58 5 -18 5 C-18 4.67 -18 4.34 -18 4 C-17.11957031 3.87882813 -16.23914063 3.75765625 -15.33203125 3.6328125 C-14.17058594 3.46523438 -13.00914062 3.29765625 -11.8125 3.125 C-10.66394531 2.96257813 -9.51539063 2.80015625 -8.33203125 2.6328125 C-5.02933443 2.11799815 -5.02933443 2.11799815 -2.19921875 0.8671875 C-1.47347656 0.58101562 -0.74773438 0.29484375 0 0 Z " fill="#08131C" transform="translate(832,721)"/>
<path d="M0 0 C5.94 0 11.88 0 18 0 C18 0.99 18 1.98 18 3 C12.39 3 6.78 3 1 3 C0.67 2.01 0.34 1.02 0 0 Z " fill="#1D2C39" transform="translate(343,746)"/>
<path d="M0 0 C0.66 0.66 1.32 1.32 2 2 C2.99 2 3.98 2 5 2 C6.6875 3.5 6.6875 3.5 8 5 C8.33 3.68 8.66 2.36 9 1 C9.99 1.66 10.98 2.32 12 3 C8.52657444 6.47342556 5.81241608 7.4769113 1 8 C0 7 0 7 -0.0625 3.4375 C-0.041875 2.303125 -0.02125 1.16875 0 0 Z " fill="#152737" transform="translate(536,660)"/>
<path d="M0 0 C-0.99 0.33 -1.98 0.66 -3 1 C-3 1.66 -3 2.32 -3 3 C-3.66 3 -4.32 3 -5 3 C-5 3.66 -5 4.32 -5 5 C-9.29 4.67 -13.58 4.34 -18 4 C-12.06787301 1.03393651 -6.67434076 -0.33371704 0 0 Z " fill="#0F1922" transform="translate(615,529)"/>
<path d="M0 0 C0 0.66 0 1.32 0 2 C1.32 2.66 2.64 3.32 4 4 C3.01 4.495 3.01 4.495 2 5 C2 5.66 2 6.32 2 7 C0.625 8.625 0.625 8.625 -1 10 C-1.66 10 -2.32 10 -3 10 C-3.12375 9.030625 -3.2475 8.06125 -3.375 7.0625 C-3.58125 6.051875 -3.7875 5.04125 -4 4 C-4.66 3.67 -5.32 3.34 -6 3 C-6 2.34 -6 1.68 -6 1 C-3.92446352 0.4465236 -2.15634036 0 0 0 Z " fill="#152533" transform="translate(632,524)"/>
<path d="M0 0 C-3.24075555 3.24075555 -6.42672736 3.56754142 -10.78125 4.08203125 C-13.32807713 3.98787039 -14.82291646 3.28151054 -17 2 C-15.58603098 1.49242138 -14.16868271 0.99425075 -12.75 0.5 C-11.96109375 0.2215625 -11.1721875 -0.056875 -10.359375 -0.34375 C-6.68212267 -1.36656191 -3.59692524 -1.02769293 0 0 Z " fill="#15212D" transform="translate(665,519)"/>
<path d="M0 0 C0.99 0 1.98 0 3 0 C3 7.59 3 15.18 3 23 C2.67 23 2.34 23 2 23 C1.87625 21.9275 1.7525 20.855 1.625 19.75 C1.10356064 16.62136385 0.59911746 14.66519576 -1 12 C-0.34 12 0.32 12 1 12 C0.67 8.04 0.34 4.08 0 0 Z " fill="#162D3C" transform="translate(405,674)"/>
<path d="M0 0 C5.28 0.33 10.56 0.66 16 1 C16 1.99 16 2.98 16 4 C9.565 4.495 9.565 4.495 3 5 C3.33 4.01 3.66 3.02 4 2 C2.68 1.34 1.36 0.68 0 0 Z " fill="#283642" transform="translate(807,723)"/>
<path d="M0 0 C0.66 0.99 1.32 1.98 2 3 C2.8885391 4.00648677 3.78451268 5.00645521 4.6875 6 C5.450625 6.99 6.21375 7.98 7 9 C6.67 9.99 6.34 10.98 6 12 C4.70684939 11.04367001 3.41553147 10.08486149 2.125 9.125 C1.40570313 8.59132813 0.68640625 8.05765625 -0.0546875 7.5078125 C-2 6 -2 6 -4 4 C-3.01 4 -2.02 4 -1 4 C-0.67 2.68 -0.34 1.36 0 0 Z " fill="#192632" transform="translate(368,656)"/>
<path d="M0 0 C0.99 0 1.98 0 3 0 C3 4.62 3 9.24 3 14 C2.01 14 1.02 14 0 14 C0 9.38 0 4.76 0 0 Z " fill="#1B2833" transform="translate(521,709)"/>
<path d="M0 0 C4.51617599 -0.07654536 8.59085217 -0.10228696 13 1 C13 1.66 13 2.32 13 3 C10.02148438 3.34179688 10.02148438 3.34179688 7.04296875 3.68359375 C4.80603607 3.97170735 4.80603607 3.97170735 2 5 C1.34 4.67 0.68 4.34 0 4 C0 2.68 0 1.36 0 0 Z " fill="#0C1822" transform="translate(326,537)"/>
<path d="M0 0 C1.89492188 0.15275391 1.89492188 0.15275391 3.828125 0.30859375 C4.79234375 0.39238281 5.7565625 0.47617187 6.75 0.5625 C4.02437316 3.28812684 2.11286215 3.05724397 -1.6875 3.375 C-2.84121094 3.48457031 -3.99492188 3.59414063 -5.18359375 3.70703125 C-8.25 3.5625 -8.25 3.5625 -10.16015625 2.07421875 C-10.69962891 1.32591797 -10.69962891 1.32591797 -11.25 0.5625 C-7.43483536 -0.73812431 -3.97438237 -0.33119853 0 0 Z " fill="#1B2934" transform="translate(685.25,634.4375)"/>
<path d="M0 0 C0.66 1.32 1.32 2.64 2 4 C1.01 4.495 1.01 4.495 0 5 C-1.13350534 7.01669827 -1.13350534 7.01669827 -2 9 C-2.99 9 -3.98 9 -5 9 C-5.33 9.66 -5.66 10.32 -6 11 C-6.99 10.67 -7.98 10.34 -9 10 C-8.15115234 9.29423828 -8.15115234 9.29423828 -7.28515625 8.57421875 C-6.55167969 7.95160156 -5.81820313 7.32898438 -5.0625 6.6875 C-4.33160156 6.07261719 -3.60070312 5.45773437 -2.84765625 4.82421875 C-0.76179634 3.04024481 -0.76179634 3.04024481 0 0 Z " fill="#132737" transform="translate(321,642)"/>
<path d="M0 0 C0.55171875 0.14308594 1.1034375 0.28617188 1.671875 0.43359375 C4.18714769 1.0455309 6.71042508 1.56126811 9.25 2.0625 C10.14203125 2.23910156 11.0340625 2.41570313 11.953125 2.59765625 C12.62859375 2.73042969 13.3040625 2.86320313 14 3 C14 3.33 14 3.66 14 4 C8.39 4 2.78 4 -3 4 C-2.01 3.67 -1.02 3.34 0 3 C0 2.01 0 1.02 0 0 Z " fill="#132837" transform="translate(424,785)"/>
<path d="M0 0 C1.13643966 3.40931897 0.86747764 4.00335456 -0.4375 7.1875 C-0.72496094 7.90292969 -1.01242187 8.61835937 -1.30859375 9.35546875 C-1.53675781 9.89816406 -1.76492188 10.44085937 -2 11 C-4.81832513 9.59083743 -5.02593461 7.92219617 -6 5 C-6 4.01 -6 3.02 -6 2 C-5.34 2 -4.68 2 -4 2 C-3.67 2.99 -3.34 3.98 -3 5 C-2.01 3.35 -1.02 1.7 0 0 Z " fill="#EFF1F1" transform="translate(469,700)"/>
<path d="M0 0 C0.66 1.32 1.32 2.64 2 4 C-1.75 7 -1.75 7 -4 7 C-4.66 8.65 -5.32 10.3 -6 12 C-6.33 11.01 -6.66 10.02 -7 9 C-5.8203125 6.9921875 -5.8203125 6.9921875 -4.125 4.875 C-3.57070313 4.17117188 -3.01640625 3.46734375 -2.4453125 2.7421875 C-1 1 -1 1 0 0 Z " fill="#0D1721" transform="translate(776,652)"/>
<path d="M0 0 C2.31 0.33 4.62 0.66 7 1 C1.34997552 4.76668299 -6.3000445 5.36215976 -13 5 C-10.03821227 3.32889958 -7.62928808 2.67317248 -4.25 2.375 C-3.05117188 2.26285156 -3.05117188 2.26285156 -1.828125 2.1484375 C-1.22484375 2.09945312 -0.6215625 2.05046875 0 2 C0 1.34 0 0.68 0 0 Z " fill="#0A1016" transform="translate(548,552)"/>
<path d="M0 0 C0.99 0.66 1.98 1.32 3 2 C3.29296875 4.6015625 3.29296875 4.6015625 3.1875 7.625 C3.16042969 8.62789063 3.13335937 9.63078125 3.10546875 10.6640625 C3.07066406 11.43492187 3.03585938 12.20578125 3 13 C1.68 13.33 0.36 13.66 -1 14 C-1.33 13.34 -1.66 12.68 -2 12 C-1.34 12 -0.68 12 0 12 C0 8.04 0 4.08 0 0 Z " fill="#24333E" transform="translate(246,433)"/>
<path d="M0 0 C3.3 0 6.6 0 10 0 C10.33 0.99 10.66 1.98 11 3 C9.02 3 7.04 3 5 3 C4.67 3.66 4.34 4.32 4 5 C4 4.34 4 3.68 4 3 C2.68 2.67 1.36 2.34 0 2 C0 1.34 0 0.68 0 0 Z " fill="#212E39" transform="translate(390,344)"/>
<path d="M0 0 C4.15151338 1.44202476 7.29978445 3.5010438 10.8125 6.125 C11.78832031 6.84945313 12.76414062 7.57390625 13.76953125 8.3203125 C14.50558594 8.87460937 15.24164062 9.42890625 16 10 C15.01 10.495 15.01 10.495 14 11 C13.34 10.67 12.68 10.34 12 10 C11.67 10.66 11.34 11.32 11 12 C10.93941406 11.41605469 10.87882813 10.83210938 10.81640625 10.23046875 C9.65353882 7.05344817 7.74195472 6.13085953 4.9375 4.3125 C3.27956566 3.22658789 1.63014642 2.12719743 0 1 C0 0.67 0 0.34 0 0 Z " fill="#0C1219" transform="translate(606,301)"/>
<path d="M0 0 C0.33 0.99 0.66 1.98 1 3 C0.67 3.66 0.34 4.32 0 5 C-5.28 5 -10.56 5 -16 5 C-16 4.67 -16 4.34 -16 4 C-15.21753906 3.95101562 -14.43507813 3.90203125 -13.62890625 3.8515625 C-12.61699219 3.77679687 -11.60507812 3.70203125 -10.5625 3.625 C-9.55316406 3.55539062 -8.54382813 3.48578125 -7.50390625 3.4140625 C-6.26447266 3.20910156 -6.26447266 3.20910156 -5 3 C-4.67 2.34 -4.34 1.68 -4 1 C-1.9375 0.375 -1.9375 0.375 0 0 Z " fill="#1A2C3B" transform="translate(438,764)"/>
<path d="M0 0 C2 1 2 1 3.25 3.875 C3.4975 4.90625 3.745 5.9375 4 7 C3.01 8.485 3.01 8.485 2 10 C1.34 9.67 0.68 9.34 0 9 C0.33 8.34 0.66 7.68 1 7 C0.01 6.67 -0.98 6.34 -2 6 C-1.49396008 3.83125748 -1.00016187 2.00032373 0 0 Z " fill="#0B1B28" transform="translate(786,457)"/>
<path d="M0 0 C0.70189453 0.00451172 1.40378906 0.00902344 2.12695312 0.01367188 C3.85550538 0.02543073 5.58401365 0.04336546 7.3125 0.0625 C3.89155758 2.34312828 2.63062778 2.28175007 -1.375 2.1875 C-2.86580078 2.16042969 -2.86580078 2.16042969 -4.38671875 2.1328125 C-5.14597656 2.10960937 -5.90523437 2.08640625 -6.6875 2.0625 C-6.6875 2.7225 -6.6875 3.3825 -6.6875 4.0625 C-8.6675 4.0625 -10.6475 4.0625 -12.6875 4.0625 C-9.40055039 -0.86792441 -5.42704858 -0.06587454 0 0 Z " fill="#1D303E" transform="translate(689.6875,740.9375)"/>
<path d="M0 0 C1.22589844 0.01353516 1.22589844 0.01353516 2.4765625 0.02734375 C3.41628906 0.04474609 3.41628906 0.04474609 4.375 0.0625 C3.385 0.7225 2.395 1.3825 1.375 2.0625 C1.375 3.0525 1.375 4.0425 1.375 5.0625 C-4.375 4.1875 -4.375 4.1875 -6.625 3.0625 C-6.625 2.4025 -6.625 1.7425 -6.625 1.0625 C-4.21954362 -0.14022819 -2.67503047 -0.03821472 0 0 Z " fill="#0A151E" transform="translate(497.625,410.9375)"/>
<path d="M0 0 C-2 3 -2 3 -4.8203125 3.73046875 C-6.45613281 3.95669922 -6.45613281 3.95669922 -8.125 4.1875 C-9.22070312 4.34605469 -10.31640625 4.50460937 -11.4453125 4.66796875 C-12.70988281 4.83232422 -12.70988281 4.83232422 -14 5 C-13.34 4.67 -12.68 4.34 -12 4 C-11.67 3.01 -11.34 2.02 -11 1 C-7.50970582 -0.47666292 -3.72563614 -0.07164685 0 0 Z " fill="#1D2A35" transform="translate(281,385)"/>
<path d="M0 0 C2.64 0.33 5.28 0.66 8 1 C8 1.66 8 2.32 8 3 C9.65 2.67 11.3 2.34 13 2 C13.99 3.485 13.99 3.485 15 5 C9.99109914 4.38487182 4.99367864 3.7282448 0 3 C0 2.01 0 1.02 0 0 Z " fill="#162939" transform="translate(697,494)"/>
<path d="M0 0 C0.33 0 0.66 0 1 0 C1.027193 1.58323688 1.04648306 3.16661062 1.0625 4.75 C1.07410156 5.63171875 1.08570313 6.5134375 1.09765625 7.421875 C1.00826198 9.7818838 0.66912821 11.74498524 0 14 C-0.66 14 -1.32 14 -2 14 C-2 11.36 -2 8.72 -2 6 C-1.34 6 -0.68 6 0 6 C0 4.02 0 2.04 0 0 Z " fill="#0D151E" transform="translate(745,742)"/>
<path d="M0 0 C-0.98141939 2.45354848 -1.72245592 3.79646768 -3.875 5.375 C-6 6 -6 6 -8.1328125 5.0390625 C-8.74898437 4.69617188 -9.36515625 4.35328125 -10 4 C-8.71086513 3.32845067 -7.41859796 2.66291141 -6.125 2 C-5.40570313 1.62875 -4.68640625 1.2575 -3.9453125 0.875 C-2 0 -2 0 0 0 Z " fill="#090E14" transform="translate(240,461)"/>
<path d="M0 0 C-0.33 0.66 -0.66 1.32 -1 2 C-3.64 2 -6.28 2 -9 2 C-8.67 1.01 -8.34 0.02 -8 -1 C-4.71293093 -2.47351372 -2.99288606 -1.8171094 0 0 Z " fill="#F1F2F2" transform="translate(633,338)"/>
<path d="M0 0 C0.33 0.99 0.66 1.98 1 3 C1.99 3.33 2.98 3.66 4 4 C3.01 4.33 2.02 4.66 1 5 C0.34 5.66 -0.32 6.32 -1 7 C-4.625 7.125 -4.625 7.125 -8 7 C-7.67 6.01 -7.34 5.02 -7 4 C-5.02 3.67 -3.04 3.34 -1 3 C-0.67 2.01 -0.34 1.02 0 0 Z " fill="#142738" transform="translate(606,535)"/>
<path d="M0 0 C2.7108976 2.7108976 2 4.26489579 2 8 C2.89831016 10.30230766 2.89831016 10.30230766 4 12 C-1.875 7.375 -1.875 7.375 -3 4 C-2.01 4 -1.02 4 0 4 C0 2.68 0 1.36 0 0 Z " fill="#091724" transform="translate(440,303)"/>
<path d="M0 0 C0.99 0.33 1.98 0.66 3 1 C2.67 1.99 2.34 2.98 2 4 C4.97 4.495 4.97 4.495 8 5 C8 5.33 8 5.66 8 6 C6.741875 6.04125 5.48375 6.0825 4.1875 6.125 C3.47980469 6.14820313 2.77210938 6.17140625 2.04296875 6.1953125 C0 6 0 6 -3 4 C-2.01 2.68 -1.02 1.36 0 0 Z " fill="#0A151E" transform="translate(673,738)"/>
<path d="M0 0 C0.66 0.33 1.32 0.66 2 1 C1.34 3.97 0.68 6.94 0 10 C-0.66 10 -1.32 10 -2 10 C-2.33 10.99 -2.66 11.98 -3 13 C-4 11 -4 11 -3.22265625 8.3984375 C-2.83980469 7.40070312 -2.45695312 6.40296875 -2.0625 5.375 C-1.68222656 4.37210938 -1.30195313 3.36921875 -0.91015625 2.3359375 C-0.60980469 1.56507813 -0.30945313 0.79421875 0 0 Z " fill="#E6E7E8" transform="translate(259,717)"/>
<path d="M0 0 C3.63 0 7.26 0 11 0 C10.01 1.485 10.01 1.485 9 3 C6.0625 3.375 6.0625 3.375 3 3 C2.01 2.01 1.02 1.02 0 0 Z " fill="#F1F2F1" transform="translate(347,658)"/>
<path d="M0 0 C0.33 0 0.66 0 1 0 C1.99250545 5.70690634 2.10477512 11.21408489 2 17 C0.5393715 14.35261084 0 13.10551666 0 10 C0.33 9.34 0.66 8.68 1 8 C0.34 8 -0.32 8 -1 8 C-0.67 5.36 -0.34 2.72 0 0 Z " fill="#15293B" transform="translate(295,429)"/>
<path d="M0 0 C0.33 0 0.66 0 1 0 C0.67 4.95 0.34 9.9 0 15 C-0.66 15 -1.32 15 -2 15 C-1.67 12.36 -1.34 9.72 -1 7 C-1.66 6.67 -2.32 6.34 -3 6 C-2.67 5.34 -2.34 4.68 -2 4 C-1.34 4 -0.68 4 0 4 C0 2.68 0 1.36 0 0 Z " fill="#13293A" transform="translate(323,681)"/>
<path d="M0 0 C0.66 0 1.32 0 2 0 C2 0.99 2 1.98 2 3 C2.598125 2.649375 3.19625 2.29875 3.8125 1.9375 C6 1 6 1 9 2 C4.25 4.875 4.25 4.875 2 6 C1.01 5.34 0.02 4.68 -1 4 C-0.67 2.68 -0.34 1.36 0 0 Z " fill="#142938" transform="translate(445,782)"/>
<path d="M0 0 C5.94 0.99 5.94 0.99 12 2 C11.67 2.66 11.34 3.32 11 4 C3.375 3.375 3.375 3.375 0 0 Z " fill="#0B141B" transform="translate(329,743)"/>
<path d="M0 0 C0.33 0.66 0.66 1.32 1 2 C1.99 2.33 2.98 2.66 4 3 C4 3.99 4 4.98 4 6 C2 7.6875 2 7.6875 0 9 C0 6.03 0 3.06 0 0 Z " fill="#132839" transform="translate(596,698)"/>
<path d="M0 0 C6.625 -0.125 6.625 -0.125 10 1 C10 1.66 10 2.32 10 3 C6.7 3 3.4 3 0 3 C0 2.01 0 1.02 0 0 Z " fill="#1F2D3A" transform="translate(565,634)"/>
<path d="M0 0 C0.33 0 0.66 0 1 0 C1.07654536 4.51617599 1.10228696 8.59085217 0 13 C-0.33 13 -0.66 13 -1 13 C-1.33 10.69 -1.66 8.38 -2 6 C-2.66 6 -3.32 6 -4 6 C-4 5.34 -4 4.68 -4 4 C-2.68 4 -1.36 4 0 4 C0 2.68 0 1.36 0 0 Z " fill="#060E16" transform="translate(378,327)"/>
<path d="M0 0 C0.66 0.33 1.32 0.66 2 1 C1.67 2.32 1.34 3.64 1 5 C-1.31 5.66 -3.62 6.32 -6 7 C-4.77065985 3.31197956 -3.06140622 2.27643027 0 0 Z " fill="#0B161F" transform="translate(278,327)"/>
<path d="M0 0 C0.99 0 1.98 0 3 0 C3.19622241 4.21878192 2.80230168 7.17010894 1 11 C0.67 11 0.34 11 0 11 C-0.19491452 9.54263913 -0.38069358 8.08405407 -0.5625 6.625 C-0.66691406 5.81289063 -0.77132812 5.00078125 -0.87890625 4.1640625 C-1 2 -1 2 0 0 Z " fill="#1C2C3B" transform="translate(872,681)"/>
<path d="M0 0 C0.99 0.33 1.98 0.66 3 1 C1.35 2.98 -0.3 4.96 -2 7 C-2.66 6.01 -3.32 5.02 -4 4 C-2.68 2.68 -1.36 1.36 0 0 Z " fill="#1E2C36" transform="translate(780,647)"/>
<path d="M0 0 C0.66 0 1.32 0 2 0 C3.13643966 3.40931897 2.86747764 4.00335456 1.5625 7.1875 C1.13130859 8.26064453 1.13130859 8.26064453 0.69140625 9.35546875 C0.46324219 9.89816406 0.23507813 10.44085938 0 11 C-0.33 11 -0.66 11 -1 11 C-0.67 7.37 -0.34 3.74 0 0 Z " fill="#E3E5E5" transform="translate(250,422)"/>
<path d="M0 0 C2.13093906 1.06546953 3.36587557 2.29159719 5 4 C4.01 5.32 3.02 6.64 2 8 C0 5 0 5 0 3 C-0.99 2.34 -1.98 1.68 -3 1 C-2.01 0.67 -1.02 0.34 0 0 Z " fill="#152939" transform="translate(744,359)"/>
<path d="M0 0 C1.5625 1.8125 1.5625 1.8125 3 4 C2.67 4.99 2.34 5.98 2 7 C-0.64 6.67 -3.28 6.34 -6 6 C-6 5.67 -6 5.34 -6 5 C-3.69 5 -1.38 5 1 5 C0.67 3.35 0.34 1.7 0 0 Z " fill="#050C14" transform="translate(405,340)"/>
<path d="M0 0 C2.56687367 3.8503105 1.83288724 5.58569763 1 10 C0.67 10 0.34 10 0 10 C-0.33 8.02 -0.66 6.04 -1 4 C-2.98 4.99 -2.98 4.99 -5 6 C-3.35 4.02 -1.7 2.04 0 0 Z " fill="#19212D" transform="translate(718,728)"/>
<path d="M0 0 C3.37503669 1.1858237 5.64722731 2.27573689 8 5 C6.35 4.67 4.7 4.34 3 4 C2.67 4.66 2.34 5.32 2 6 C1.34 4.02 0.68 2.04 0 0 Z " fill="#112738" transform="translate(582,287)"/>
<path d="M0 0 C0.66 0.99 1.32 1.98 2 3 C1.67 3.99 1.34 4.98 1 6 C-0.98 5.34 -2.96 4.68 -5 4 C-3.35 2.68 -1.7 1.36 0 0 Z " fill="#1D2833" transform="translate(586,721)"/>
<path d="M0 0 C0.99 0.66 1.98 1.32 3 2 C1.741875 2.04125 0.48375 2.0825 -0.8125 2.125 C-1.52019531 2.14820313 -2.22789062 2.17140625 -2.95703125 2.1953125 C-5 2 -5 2 -8 0 C-4.65649854 -1.11450049 -3.33342063 -0.91669067 0 0 Z " fill="#F3F3F3" transform="translate(562,679)"/>
<path d="M0 0 C2.97 0.33 5.94 0.66 9 1 C9 1.33 9 1.66 9 2 C7.02 2 5.04 2 3 2 C2.67 2.99 2.34 3.98 2 5 C1.34 5 0.68 5 0 5 C0 3.35 0 1.7 0 0 Z " fill="#1C2A35" transform="translate(161,602)"/>
<path d="M0 0 C0.66 0 1.32 0 2 0 C2.33 2.31 2.66 4.62 3 7 C2.01 7 1.02 7 0 7 C-0.38133299 5.0085944 -0.71325582 3.00720923 -1 1 C-0.67 0.67 -0.34 0.34 0 0 Z " fill="#EBECEC" transform="translate(469,465)"/>
<path d="M0 0 C0.66 0.99 1.32 1.98 2 3 C0.02 4.32 -1.96 5.64 -4 7 C-4.33 5.68 -4.66 4.36 -5 3 C-3.68 3 -2.36 3 -1 3 C-0.67 2.01 -0.34 1.02 0 0 Z " fill="#1A2B38" transform="translate(325,313)"/>
<path d="M0 0 C0.66 0.33 1.32 0.66 2 1 C1.67 1.66 1.34 2.32 1 3 C1.66 3.66 2.32 4.32 3 5 C2 6 2 6 -0.5625 6.0625 C-1.7690625 6.0315625 -1.7690625 6.0315625 -3 6 C-1.125 1.125 -1.125 1.125 0 0 Z " fill="#0A1723" transform="translate(444,783)"/>
<path d="M0 0 C0 0.66 0 1.32 0 2 C-1.65 2.66 -3.3 3.32 -5 4 C-5.33 2.68 -5.66 1.36 -6 0 C-3 -1 -3 -1 0 0 Z " fill="#ECEEEE" transform="translate(563,660)"/>
<path d="M0 0 C0.99 0 1.98 0 3 0 C1.83857315 4.35535069 0.92300495 6.64619703 -3 9 C-2.5359375 7.88625 -2.5359375 7.88625 -2.0625 6.75 C-1.1905075 4.49307824 -0.52332993 2.3549847 0 0 Z " fill="#152838" transform="translate(649,652)"/>
<path d="M0 0 C2.97 0 5.94 0 9 0 C5.32326162 1.83836919 1.95007553 2.93651813 -2 4 C-1.34 2.68 -0.68 1.36 0 0 Z " fill="#13293B" transform="translate(340,656)"/>
<path d="M0 0 C1.3921875 0.0928125 1.3921875 0.0928125 2.8125 0.1875 C2.8125 1.1775 2.8125 2.1675 2.8125 3.1875 C-0.1575 3.1875 -3.1275 3.1875 -6.1875 3.1875 C-3.1875 0.1875 -3.1875 0.1875 0 0 Z " fill="#273440" transform="translate(438.1875,464.8125)"/>
<path d="M0 0 C2 3 2 3 1.625 5.1875 C1.41875 5.785625 1.2125 6.38375 1 7 C-0.98 6.34 -2.96 5.68 -5 5 C-4.01 4.67 -3.02 4.34 -2 4 C-1.34 4.33 -0.68 4.66 0 5 C0 3.35 0 1.7 0 0 Z " fill="#121E2A" transform="translate(662,780)"/>
<path d="M0 0 C0.33 0 0.66 0 1 0 C1.042721 1.66611905 1.04063832 3.33382885 1 5 C0 6 0 6 -2.5625 6.0625 C-3.7690625 6.0315625 -3.7690625 6.0315625 -5 6 C-4.01 4.68 -3.02 3.36 -2 2 C-1.67 2.33 -1.34 2.66 -1 3 C-0.67 2.01 -0.34 1.02 0 0 Z " fill="#E7E8E9" transform="translate(594,673)"/>
<path d="M0 0 C0.66 0.99 1.32 1.98 2 3 C1.67 3.66 1.34 4.32 1 5 C0.34 5 -0.32 5 -1 5 C-1.33 6.32 -1.66 7.64 -2 9 C-3 6 -3 6 -1.5625 2.8125 C-1.046875 1.884375 -0.53125 0.95625 0 0 Z " fill="#ECEEF0" transform="translate(289,639)"/>
<path d="M0 0 C0 0.66 0 1.32 0 2 C-2.91482778 2.80967438 -4.46113217 3.21845993 -7.3125 2.0625 C-7.869375 1.711875 -8.42625 1.36125 -9 1 C-6.04335481 -0.4783226 -3.25770263 -0.06032783 0 0 Z " fill="#122738" transform="translate(657,520)"/>
<path d="M0 0 C2.64 0 5.28 0 8 0 C7.67 0.99 7.34 1.98 7 3 C4.625 3.1875 4.625 3.1875 2 3 C1.34 2.01 0.68 1.02 0 0 Z " fill="#283541" transform="translate(379,460)"/>
<path d="M0 0 C0.66 0 1.32 0 2 0 C2 0.66 2 1.32 2 2 C2.66 2.33 3.32 2.66 4 3 C3.34 4.32 2.68 5.64 2 7 C1.34 7 0.68 7 0 7 C0 4.69 0 2.38 0 0 Z " fill="#0D1821" transform="translate(306,451)"/>
<path d="M0 0 C0.99 0 1.98 0 3 0 C3 1.98 3 3.96 3 6 C2.34 6 1.68 6 1 6 C0.67 6.66 0.34 7.32 0 8 C0 5.36 0 2.72 0 0 Z " fill="#1C2934" transform="translate(257,432)"/>
<path d="M0 0 C0.33 0.99 0.66 1.98 1 3 C1.99 3.33 2.98 3.66 4 4 C3.67 4.99 3.34 5.98 3 7 C2.01 7.33 1.02 7.66 0 8 C0 5.36 0 2.72 0 0 Z " fill="#EFF1F0" transform="translate(765,400)"/>
</svg>
